<svg viewBox="0 0 1496 400" xmlns="http://www.w3.org/2000/svg"><g><g><g><g><g><line x1="50" y1="378" x2="45" y2="378" style="visibility: inherit;" fill="rgb(0, 0, 0)" stroke="rgb(204, 204, 204)" stroke-width="1px"></line><line x1="50" y1="343.6363636363636" x2="45" y2="343.6363636363636" style="visibility: inherit;" fill="rgb(0, 0, 0)" stroke="rgb(204, 204, 204)" stroke-width="1px"></line><line x1="50" y1="309.27272727272725" x2="45" y2="309.27272727272725" style="visibility: inherit;" fill="rgb(0, 0, 0)" stroke="rgb(204, 204, 204)" stroke-width="1px"></line><line x1="50" y1="274.90909090909093" x2="45" y2="274.90909090909093" style="visibility: inherit;" fill="rgb(0, 0, 0)" stroke="rgb(204, 204, 204)" stroke-width="1px"></line><line x1="50" y1="240.54545454545453" x2="45" y2="240.54545454545453" style="visibility: inherit;" fill="rgb(0, 0, 0)" stroke="rgb(204, 204, 204)" stroke-width="1px"></line><line x1="50" y1="206.18181818181816" x2="45" y2="206.18181818181816" style="visibility: inherit;" fill="rgb(0, 0, 0)" stroke="rgb(204, 204, 204)" stroke-width="1px"></line><line x1="50" y1="171.81818181818184" x2="45" y2="171.81818181818184" style="visibility: inherit;" fill="rgb(0, 0, 0)" stroke="rgb(204, 204, 204)" stroke-width="1px"></line><line x1="50" y1="137.45454545454547" x2="45" y2="137.45454545454547" style="visibility: inherit;" fill="rgb(0, 0, 0)" stroke="rgb(204, 204, 204)" stroke-width="1px"></line><line x1="50" y1="103.09090909090908" x2="45" y2="103.09090909090908" style="visibility: inherit;" fill="rgb(0, 0, 0)" stroke="rgb(204, 204, 204)" stroke-width="1px"></line><line x1="50" y1="68.7272727272727" x2="45" y2="68.7272727272727" style="visibility: inherit;" fill="rgb(0, 0, 0)" stroke="rgb(204, 204, 204)" stroke-width="1px"></line><line x1="50" y1="34.363636363636374" x2="45" y2="34.363636363636374" style="visibility: inherit;" fill="rgb(0, 0, 0)" stroke="rgb(204, 204, 204)" stroke-width="1px"></line><line x1="50" y1="0" x2="45" y2="0" style="visibility: inherit;" fill="rgb(0, 0, 0)" stroke="rgb(204, 204, 204)" stroke-width="1px"></line></g><g transform="translate(40, 0)"><text x="0" y="378" dx="0em" dy="0.3em" style="text-anchor: end; visibility: hidden; font-family: Roboto, sans-serif; font-size: 12px; font-weight: 200;" fill="rgb(50, 49, 63)" stroke="none" stroke-width="1px">-0.5</text><text x="0" y="343.6363636363636" dx="0em" dy="0.3em" style="text-anchor: end; visibility: inherit; font-family: Roboto, sans-serif; font-size: 12px; font-weight: 200;" fill="rgb(50, 49, 63)" stroke="none" stroke-width="1px">0</text><text x="0" y="309.27272727272725" dx="0em" dy="0.3em" style="text-anchor: end; visibility: inherit; font-family: Roboto, sans-serif; font-size: 12px; font-weight: 200;" fill="rgb(50, 49, 63)" stroke="none" stroke-width="1px">0.5</text><text x="0" y="274.90909090909093" dx="0em" dy="0.3em" style="text-anchor: end; visibility: inherit; font-family: Roboto, sans-serif; font-size: 12px; font-weight: 200;" fill="rgb(50, 49, 63)" stroke="none" stroke-width="1px">1</text><text x="0" y="240.54545454545453" dx="0em" dy="0.3em" style="text-anchor: end; visibility: inherit; font-family: Roboto, sans-serif; font-size: 12px; font-weight: 200;" fill="rgb(50, 49, 63)" stroke="none" stroke-width="1px">1.5</text><text x="0" y="206.18181818181816" dx="0em" dy="0.3em" style="text-anchor: end; visibility: inherit; font-family: Roboto, sans-serif; font-size: 12px; font-weight: 200;" fill="rgb(50, 49, 63)" stroke="none" stroke-width="1px">2</text><text x="0" y="171.81818181818184" dx="0em" dy="0.3em" style="text-anchor: end; visibility: inherit; font-family: Roboto, sans-serif; font-size: 12px; font-weight: 200;" fill="rgb(50, 49, 63)" stroke="none" stroke-width="1px">2.5</text><text x="0" y="137.45454545454547" dx="0em" dy="0.3em" style="text-anchor: end; visibility: inherit; font-family: Roboto, sans-serif; font-size: 12px; font-weight: 200;" fill="rgb(50, 49, 63)" stroke="none" stroke-width="1px">3</text><text x="0" y="103.09090909090908" dx="0em" dy="0.3em" style="text-anchor: end; visibility: inherit; font-family: Roboto, sans-serif; font-size: 12px; font-weight: 200;" fill="rgb(50, 49, 63)" stroke="none" stroke-width="1px">3.5</text><text x="0" y="68.7272727272727" dx="0em" dy="0.3em" style="text-anchor: end; visibility: inherit; font-family: Roboto, sans-serif; font-size: 12px; font-weight: 200;" fill="rgb(50, 49, 63)" stroke="none" stroke-width="1px">4</text><text x="0" y="34.363636363636374" dx="0em" dy="0.3em" style="text-anchor: end; visibility: inherit; font-family: Roboto, sans-serif; font-size: 12px; font-weight: 200;" fill="rgb(50, 49, 63)" stroke="none" stroke-width="1px">4.5</text><text x="0" y="0" dx="0em" dy="0.3em" style="text-anchor: end; visibility: hidden; font-family: Roboto, sans-serif; font-size: 12px; font-weight: 200;" fill="rgb(50, 49, 63)" stroke="none" stroke-width="1px">5</text></g><line x1="50" y1="0" x2="50" y2="378" fill="rgb(0, 0, 0)" stroke="rgb(204, 204, 204)" stroke-width="1px"></line></g></g><g transform="translate(50, 0)" clip-path="url(#clip_0)"><clipPath id="clip_0"><rect width="1446" height="378"></rect></clipPath><g><g><g><line x1="0" y1="0" x2="0" y2="378" fill="rgb(0, 0, 0)" stroke="rgb(60, 60, 60)" stroke-width="1px" opacity="0.25"></line><line x1="120.5" y1="0" x2="120.5" y2="378" fill="rgb(0, 0, 0)" stroke="rgb(60, 60, 60)" stroke-width="1px" opacity="0.25"></line><line x1="241" y1="0" x2="241" y2="378" fill="rgb(0, 0, 0)" stroke="rgb(60, 60, 60)" stroke-width="1px" opacity="0.25"></line><line x1="361.5" y1="0" x2="361.5" y2="378" fill="rgb(0, 0, 0)" stroke="rgb(60, 60, 60)" stroke-width="1px" opacity="0.25"></line><line x1="482" y1="0" x2="482" y2="378" fill="rgb(0, 0, 0)" stroke="rgb(60, 60, 60)" stroke-width="1px" opacity="0.25"></line><line x1="602.5" y1="0" x2="602.5" y2="378" fill="rgb(0, 0, 0)" stroke="rgb(60, 60, 60)" stroke-width="1px" opacity="0.25"></line><line x1="723" y1="0" x2="723" y2="378" fill="rgb(0, 0, 0)" stroke="rgb(60, 60, 60)" stroke-width="1px" opacity="0.25"></line><line x1="843.5" y1="0" x2="843.5" y2="378" fill="rgb(0, 0, 0)" stroke="rgb(60, 60, 60)" stroke-width="1px" opacity="0.25"></line><line x1="964" y1="0" x2="964" y2="378" fill="rgb(0, 0, 0)" stroke="rgb(60, 60, 60)" stroke-width="1px" opacity="0.25"></line><line x1="1084.5" y1="0" x2="1084.5" y2="378" fill="rgb(0, 0, 0)" stroke="rgb(60, 60, 60)" stroke-width="1px" opacity="0.25"></line><line x1="1205" y1="0" x2="1205" y2="378" fill="rgb(0, 0, 0)" stroke="rgb(60, 60, 60)" stroke-width="1px" opacity="0.25"></line><line x1="1325.5" y1="0" x2="1325.5" y2="378" fill="rgb(0, 0, 0)" stroke="rgb(60, 60, 60)" stroke-width="1px" opacity="0.25"></line><line x1="1446" y1="0" x2="1446" y2="378" fill="rgb(0, 0, 0)" stroke="rgb(60, 60, 60)" stroke-width="1px" opacity="0.25"></line></g><g><line x1="0" y1="378" x2="1446" y2="378" fill="rgb(0, 0, 0)" stroke="rgb(60, 60, 60)" stroke-width="1px" opacity="0.25"></line><line x1="0" y1="343.6363636363636" x2="1446" y2="343.6363636363636" fill="rgb(0, 0, 0)" stroke="rgb(60, 60, 60)" stroke-width="1px" opacity="0.25"></line><line x1="0" y1="309.27272727272725" x2="1446" y2="309.27272727272725" fill="rgb(0, 0, 0)" stroke="rgb(60, 60, 60)" stroke-width="1px" opacity="0.25"></line><line x1="0" y1="274.90909090909093" x2="1446" y2="274.90909090909093" fill="rgb(0, 0, 0)" stroke="rgb(60, 60, 60)" stroke-width="1px" opacity="0.25"></line><line x1="0" y1="240.54545454545453" x2="1446" y2="240.54545454545453" fill="rgb(0, 0, 0)" stroke="rgb(60, 60, 60)" stroke-width="1px" opacity="0.25"></line><line x1="0" y1="206.18181818181816" x2="1446" y2="206.18181818181816" fill="rgb(0, 0, 0)" stroke="rgb(60, 60, 60)" stroke-width="1px" opacity="0.25"></line><line x1="0" y1="171.81818181818184" x2="1446" y2="171.81818181818184" fill="rgb(0, 0, 0)" stroke="rgb(60, 60, 60)" stroke-width="1px" opacity="0.25"></line><line x1="0" y1="137.45454545454547" x2="1446" y2="137.45454545454547" fill="rgb(0, 0, 0)" stroke="rgb(60, 60, 60)" stroke-width="1px" opacity="0.25"></line><line x1="0" y1="103.09090909090908" x2="1446" y2="103.09090909090908" fill="rgb(0, 0, 0)" stroke="rgb(60, 60, 60)" stroke-width="1px" opacity="0.25"></line><line x1="0" y1="68.7272727272727" x2="1446" y2="68.7272727272727" fill="rgb(0, 0, 0)" stroke="rgb(60, 60, 60)" stroke-width="1px" opacity="0.25"></line><line x1="0" y1="34.363636363636374" x2="1446" y2="34.363636363636374" fill="rgb(0, 0, 0)" stroke="rgb(60, 60, 60)" stroke-width="1px" opacity="0.25"></line><line x1="0" y1="0" x2="1446" y2="0" fill="rgb(0, 0, 0)" stroke="rgb(60, 60, 60)" stroke-width="1px" opacity="0.25"></line></g></g></g><g><g><line x1="0" y1="343.6363636363636" x2="1446" y2="343.6363636363636" fill="rgb(0, 0, 0)" stroke="rgb(153, 153, 153)" stroke-width="1.5px"></line></g></g><g><g><line x1="120.5" y1="0" x2="120.5" y2="378" fill="rgb(0, 0, 0)" stroke="rgb(153, 153, 153)" stroke-width="1.5px"></line></g></g><g><g><g><g><g><path stroke="rgb(51, 187, 238)" stroke-width="2px" d="M120.5,216.66816147890958L144.6,207.2370510968295L168.7,202.1722313274037L192.8,191.78438342701307L216.9,187.0430368943648L241,177.99117721210825L265.09999999999997,172.4292596470226L289.2,167.9663416255604L313.3,164.81239154122093L337.4,158.60857434706256L361.5,147.5133816979148L385.6,144.98566636172208L409.7,143.55618043379351L433.8,138.18769793076947L457.9,129.42640868100253L482,131.23045895316383L506.09999999999997,126.64361468228428L530.1999999999999,123.42941379547119L554.3000000000001,119.35824888402765L578.4,115.7962417602539L602.5,114.1449240771207L626.6,107.45887106115167L650.7,101.87670057470147L674.8,102.74231633273037L698.9,95.39473342895508L723,94.97289588234644L747.1,95.43430527773769L771.2,93.00565884330054L795.3000000000001,86.37043476104736L819.4,87.91100042516534L843.5,84.04328233545478L867.6,78.60727370869029L891.7,81.6691844246604L915.8,76.35000697049229L939.9,72.7734819759022L964,74.6036349209872L988.1,66.56646953929555L1012.1999999999999,65.53130930120294L1036.3,64.94132007252085L1060.3999999999999,61.00304447520864L1084.5,57.95497980984775L1108.6000000000001,55.7474113811146L1132.7,53.0866756439209L1156.8,55.7661240317605L1180.9,53.460174907337546L1205,51.748966910622315L1229.1,43.930946003306985L1253.2,49.69785066084429L1277.3,45.975311279296875L1301.4,43.69095871665259" style="fill: none;" fill="none"></path></g><g><path stroke="rgb(204, 51, 17)" stroke-width="2px" d="M120.5,206.1675624847412L144.6,234.42445967414164L168.7,242.98763569918546L192.8,249.05419674786654L216.9,251.21155071258545L241,255.20907757499003L265.09999999999997,256.1185582767833L289.2,258.53547243638474L313.3,259.05273303118616L337.4,260.32879816402084L361.5,261.2708375670693L385.6,260.85053209824997L409.7,262.60639155994767L433.8,263.00096303766423L457.9,263.66690072146326L482,265.31788249449295L506.09999999999997,264.98988676071167L530.1999999999999,264.6016074527394L554.3000000000001,265.3742006908763L578.4,266.248337095434L602.5,265.3988122506575L626.6,266.2454695701599L650.7,267.04363294081253L674.8,267.0306881124323L698.9,266.7266894687306L723,267.7587200078097L747.1,267.83816684376114L771.2,268.5533194541931L795.3000000000001,267.83788009123367L819.4,267.78545353629374L843.5,268.01472447135234L867.6,267.9891953034834L891.7,268.2887779582631L915.8,267.5671037760648L939.9,268.1587643623352L964,268.680907943032L988.1,267.57814784483475L1012.1999999999999,268.39642485705286L1036.3,268.5232759822499L1060.3999999999999,268.9434585571289L1084.5,268.7853350205855L1108.6000000000001,268.9799252856862L1132.7,268.8179346864874L1156.8,269.274592182853L1180.9,267.7638160098683L1205,268.36779876188797L1229.1,268.9736904664473L1253.2,269.2696436535228L1277.3,268.94071392579514L1301.4,269.0287633375688" style="fill: none;" fill="none"></path></g><g><path stroke="rgb(0, 119, 187)" stroke-width="2px" d="M120.5,242.49760020862928L144.6,251.15092303536153L168.7,254.6074707724831L192.8,256.5534471598539L216.9,257.47725729508835L241,257.79131685603744L265.09999999999997,257.99270725250244L289.2,258.08967876434326L313.3,257.91076157309794L337.4,257.6601890217174L361.5,257.53857317837804L385.6,257.0651611414823L409.7,256.75446068156845L433.8,256.45170736312866L457.9,255.83555811101738L482,255.3070977817882L506.09999999999997,254.95792332562533L530.1999999999999,254.37588943134656L554.3000000000001,253.97772945057264L578.4,253.37282909046522L602.5,253.09425310655072L626.6,252.55010331760755L650.7,251.80720944838092L674.8,251.4287043051286L698.9,251.10800847140226L723,250.53273374384102L747.1,250.06102583625102L771.2,249.65178082206035L795.3000000000001,249.03652459924874L819.4,248.4147386117415L843.5,248.10412827405062L867.6,247.4998587695035L891.7,246.99447792226616L915.8,246.6840969865972L939.9,246.19915749809957L964,245.9957352551547L988.1,245.42726885188708L1012.1999999999999,244.8757618123835L1036.3,244.51376542178068L1060.3999999999999,243.95876819437203L1084.5,243.72001804005018L1108.6000000000001,243.00135885585436L1132.7,242.85723703557792L1156.8,242.3766971501437L1180.9,241.7378452907909L1205,241.45944135839287L1229.1,241.01722799647936L1253.2,240.34298268231478L1277.3,240.34785747528076L1301.4,239.78383163972333" style="fill: none;" fill="none"></path></g><g><path stroke="rgb(255, 112, 67)" stroke-width="2px" d="M120.5,209.87655076113614L144.6,250.11232995986938L168.7,260.17206742546773L192.8,266.3772282600403L216.9,271.04122534665197L241,274.62450131503016L265.09999999999997,277.6498715660789L289.2,280.02532540668136L313.3,282.3188171820207L337.4,284.0903415246443L361.5,285.582597580823L385.6,287.3177985711531L409.7,288.47983860969543L433.8,289.39460375092244L457.9,290.6966568556699L482,291.91498641534287L506.09999999999997,292.76506837931544L530.1999999999999,293.4181431640278L554.3000000000001,294.1968933885748L578.4,295.0380614454096L602.5,295.6304757811806L626.6,296.3514822396365L650.7,296.9509056264704L674.8,297.51975709741765L698.9,298.06441075151616L723,298.56748119267553L747.1,299.16776074062693L771.2,299.6036778363314L795.3000000000001,300.1025575941259L819.4,300.46068282560867L843.5,300.7333353215998L867.6,301.139819318598L891.7,301.48221002925527L915.8,301.7150285027244L939.9,302.308831540021L964,302.34184085239065L988.1,302.7160610935905L1012.1999999999999,303.2121511589397L1036.3,303.606079491702L1060.3999999999999,303.382056127895L1084.5,304.00719302350825L1108.6000000000001,304.2977429736744L1132.7,304.21195481040263L1156.8,304.69851240244776L1180.9,304.88274680484426L1205,305.0758664391258L1229.1,305.35213201696223L1253.2,305.46824630824L1277.3,305.70473521406L1301.4,305.93101982636887" style="fill: none;" fill="none"></path></g><g><path stroke="rgb(0, 153, 136)" stroke-width="2px" d="M120.5,161.99338479475543L144.6,200.184757752852L168.7,216.43632615696302L192.8,225.52928976579145L216.9,231.411198572679L241,235.61210671338168L265.09999999999997,238.79746848886666L289.2,241.31080523404208L313.3,243.34465078874067L337.4,245.0459453409368L361.5,246.49833050641146L385.6,247.7353153662248L409.7,248.8244506229054L433.8,249.7955175746571L457.9,250.64808199622416L482,251.39804636348376L506.09999999999997,252.07383194836703L530.1999999999999,252.68540135296908L554.3000000000001,253.2734160856767L578.4,253.79773898558184L602.5,254.25361815365878L626.6,254.70774403485385L650.7,255.07814637097445L674.8,255.45737249200997L698.9,255.76434516906738L723,256.1232364394448L747.1,256.39990347081965L771.2,256.6773078658364L795.3000000000001,256.9517873850736L819.4,257.1670566038652L843.5,257.4169491421092L867.6,257.61216206984085L891.7,257.7949135520241L915.8,257.9965169646523L939.9,258.1529281789606L964,258.33807199651545L988.1,258.4866753491488L1012.1999999999999,258.62622551484543L1036.3,258.74727604605937L1060.3999999999999,258.8712678389116L1084.5,258.98646861856633L1108.6000000000001,259.1262318004262L1132.7,259.2253334738991L1156.8,259.317290912975L1180.9,259.38265410336584L1205,259.4983464587819L1229.1,259.5665198239413L1253.2,259.6632127761841L1277.3,259.72314405441284L1301.4,259.7811090295965" style="fill: none;" fill="none"></path></g><g><path stroke="rgb(238, 51, 119)" stroke-width="2px" d="M120.5,107.27215420116079L144.6,182.6064181761308L168.7,208.48649740219116L192.8,221.44164068048653L216.9,229.5839868892323L241,235.32900003953412L265.09999999999997,239.66668913581157L289.2,243.07261276245117L313.3,246.00155223499647L337.4,248.4306984381242L361.5,250.51987903768364L385.6,252.5260980345986L409.7,254.3196121996099L433.8,255.8212204846469L457.9,257.2589812712236L482,258.449962832711L506.09999999999997,259.71409086747605L530.1999999999999,260.67016475850886L554.3000000000001,261.80942435698074L578.4,262.71606211228806L602.5,263.7556055675853L626.6,264.5825261202726L650.7,265.4929244301536L674.8,266.2247824235396L698.9,267.02262626994735L723,267.81093354658645L747.1,268.4609195969322L771.2,269.0115172212774L795.3000000000001,269.7475290298462L819.4,270.38602859323674L843.5,271.1447593949058L867.6,271.467323216525L891.7,271.9657073020935L915.8,272.5819220976396L939.9,273.103664224798L964,273.56179644844747L988.1,274.0675213987177L1012.1999999999999,274.5027379989624L1036.3,275.16484958475286L1060.3999999999999,275.6272789998488L1084.5,275.93176512284714L1108.6000000000001,276.29699362408036L1132.7,276.87024879455566L1156.8,277.23217964172363L1180.9,277.57052714174444L1205,277.9186569994146L1229.1,278.3565608804876L1253.2,278.6579459797252L1277.3,278.90797779776835L1301.4,279.3215527751229" style="fill: none;" fill="none"></path></g></g></g></g></g></g><g transform="translate(50, 378)" clip-path="url(#clip_1)"><clipPath id="clip_1"><rect width="1446" height="22"></rect></clipPath><g><g><line x1="0" y1="0" x2="0" y2="5" style="visibility: inherit;" fill="rgb(0, 0, 0)" stroke="rgb(204, 204, 204)" stroke-width="1px"></line><line x1="120.5" y1="0" x2="120.5" y2="5" style="visibility: inherit;" fill="rgb(0, 0, 0)" stroke="rgb(204, 204, 204)" stroke-width="1px"></line><line x1="241" y1="0" x2="241" y2="5" style="visibility: inherit;" fill="rgb(0, 0, 0)" stroke="rgb(204, 204, 204)" stroke-width="1px"></line><line x1="361.5" y1="0" x2="361.5" y2="5" style="visibility: inherit;" fill="rgb(0, 0, 0)" stroke="rgb(204, 204, 204)" stroke-width="1px"></line><line x1="482" y1="0" x2="482" y2="5" style="visibility: inherit;" fill="rgb(0, 0, 0)" stroke="rgb(204, 204, 204)" stroke-width="1px"></line><line x1="602.5" y1="0" x2="602.5" y2="5" style="visibility: inherit;" fill="rgb(0, 0, 0)" stroke="rgb(204, 204, 204)" stroke-width="1px"></line><line x1="723" y1="0" x2="723" y2="5" style="visibility: inherit;" fill="rgb(0, 0, 0)" stroke="rgb(204, 204, 204)" stroke-width="1px"></line><line x1="843.5" y1="0" x2="843.5" y2="5" style="visibility: inherit;" fill="rgb(0, 0, 0)" stroke="rgb(204, 204, 204)" stroke-width="1px"></line><line x1="964" y1="0" x2="964" y2="5" style="visibility: inherit;" fill="rgb(0, 0, 0)" stroke="rgb(204, 204, 204)" stroke-width="1px"></line><line x1="1084.5" y1="0" x2="1084.5" y2="5" style="visibility: inherit;" fill="rgb(0, 0, 0)" stroke="rgb(204, 204, 204)" stroke-width="1px"></line><line x1="1205" y1="0" x2="1205" y2="5" style="visibility: inherit;" fill="rgb(0, 0, 0)" stroke="rgb(204, 204, 204)" stroke-width="1px"></line><line x1="1325.5" y1="0" x2="1325.5" y2="5" style="visibility: inherit;" fill="rgb(0, 0, 0)" stroke="rgb(204, 204, 204)" stroke-width="1px"></line><line x1="1446" y1="0" x2="1446" y2="5" style="visibility: inherit;" fill="rgb(0, 0, 0)" stroke="rgb(204, 204, 204)" stroke-width="1px"></line></g><g transform="translate(0, 8)"><text x="0" y="0" dx="0em" dy="0.95em" style="text-anchor: middle; visibility: hidden; font-family: Roboto, sans-serif; font-size: 12px; font-weight: 200;" fill="rgb(50, 49, 63)" stroke="none" stroke-width="1px">-5</text><text x="120.5" y="0" dx="0em" dy="0.95em" style="text-anchor: middle; visibility: inherit; font-family: Roboto, sans-serif; font-size: 12px; font-weight: 200;" fill="rgb(50, 49, 63)" stroke="none" stroke-width="1px">0</text><text x="241" y="0" dx="0em" dy="0.95em" style="text-anchor: middle; visibility: inherit; font-family: Roboto, sans-serif; font-size: 12px; font-weight: 200;" fill="rgb(50, 49, 63)" stroke="none" stroke-width="1px">5</text><text x="361.5" y="0" dx="0em" dy="0.95em" style="text-anchor: middle; visibility: inherit; font-family: Roboto, sans-serif; font-size: 12px; font-weight: 200;" fill="rgb(50, 49, 63)" stroke="none" stroke-width="1px">10</text><text x="482" y="0" dx="0em" dy="0.95em" style="text-anchor: middle; visibility: inherit; font-family: Roboto, sans-serif; font-size: 12px; font-weight: 200;" fill="rgb(50, 49, 63)" stroke="none" stroke-width="1px">15</text><text x="602.5" y="0" dx="0em" dy="0.95em" style="text-anchor: middle; visibility: inherit; font-family: Roboto, sans-serif; font-size: 12px; font-weight: 200;" fill="rgb(50, 49, 63)" stroke="none" stroke-width="1px">20</text><text x="723" y="0" dx="0em" dy="0.95em" style="text-anchor: middle; visibility: inherit; font-family: Roboto, sans-serif; font-size: 12px; font-weight: 200;" fill="rgb(50, 49, 63)" stroke="none" stroke-width="1px">25</text><text x="843.5" y="0" dx="0em" dy="0.95em" style="text-anchor: middle; visibility: inherit; font-family: Roboto, sans-serif; font-size: 12px; font-weight: 200;" fill="rgb(50, 49, 63)" stroke="none" stroke-width="1px">30</text><text x="964" y="0" dx="0em" dy="0.95em" style="text-anchor: middle; visibility: inherit; font-family: Roboto, sans-serif; font-size: 12px; font-weight: 200;" fill="rgb(50, 49, 63)" stroke="none" stroke-width="1px">35</text><text x="1084.5" y="0" dx="0em" dy="0.95em" style="text-anchor: middle; visibility: inherit; font-family: Roboto, sans-serif; font-size: 12px; font-weight: 200;" fill="rgb(50, 49, 63)" stroke="none" stroke-width="1px">40</text><text x="1205" y="0" dx="0em" dy="0.95em" style="text-anchor: middle; visibility: inherit; font-family: Roboto, sans-serif; font-size: 12px; font-weight: 200;" fill="rgb(50, 49, 63)" stroke="none" stroke-width="1px">45</text><text x="1325.5" y="0" dx="0em" dy="0.95em" style="text-anchor: middle; visibility: inherit; font-family: Roboto, sans-serif; font-size: 12px; font-weight: 200;" fill="rgb(50, 49, 63)" stroke="none" stroke-width="1px">50</text><text x="1446" y="0" dx="0em" dy="0.95em" style="text-anchor: middle; visibility: hidden; font-family: Roboto, sans-serif; font-size: 12px; font-weight: 200;" fill="rgb(50, 49, 63)" stroke="none" stroke-width="1px">55</text></g><line x1="0" y1="0" x2="1446" y2="0" fill="rgb(0, 0, 0)" stroke="rgb(204, 204, 204)" stroke-width="1px"></line></g></g></g></g></svg>