<svg viewBox="0 0 1496 400" xmlns="http://www.w3.org/2000/svg"><g><g><g><g><g><line x1="60" y1="378" x2="55" y2="378" style="visibility: inherit;" fill="rgb(0, 0, 0)" stroke="rgb(204, 204, 204)" stroke-width="1px"></line><line x1="60" y1="330.75" x2="55" y2="330.75" style="visibility: inherit;" fill="rgb(0, 0, 0)" stroke="rgb(204, 204, 204)" stroke-width="1px"></line><line x1="60" y1="283.5" x2="55" y2="283.5" style="visibility: inherit;" fill="rgb(0, 0, 0)" stroke="rgb(204, 204, 204)" stroke-width="1px"></line><line x1="60" y1="236.25" x2="55" y2="236.25" style="visibility: inherit;" fill="rgb(0, 0, 0)" stroke="rgb(204, 204, 204)" stroke-width="1px"></line><line x1="60" y1="189" x2="55" y2="189" style="visibility: inherit;" fill="rgb(0, 0, 0)" stroke="rgb(204, 204, 204)" stroke-width="1px"></line><line x1="60" y1="141.75" x2="55" y2="141.75" style="visibility: inherit;" fill="rgb(0, 0, 0)" stroke="rgb(204, 204, 204)" stroke-width="1px"></line><line x1="60" y1="94.5" x2="55" y2="94.5" style="visibility: inherit;" fill="rgb(0, 0, 0)" stroke="rgb(204, 204, 204)" stroke-width="1px"></line><line x1="60" y1="47.25" x2="55" y2="47.25" style="visibility: inherit;" fill="rgb(0, 0, 0)" stroke="rgb(204, 204, 204)" stroke-width="1px"></line><line x1="60" y1="0" x2="55" y2="0" style="visibility: inherit;" fill="rgb(0, 0, 0)" stroke="rgb(204, 204, 204)" stroke-width="1px"></line></g><g transform="translate(50, 0)"><text x="0" y="378" dx="0em" dy="0.3em" style="text-anchor: end; visibility: hidden; font-family: Roboto, sans-serif; font-size: 12px; font-weight: 200;" fill="rgb(50, 49, 63)" stroke="none" stroke-width="1px">0.64</text><text x="0" y="330.75" dx="0em" dy="0.3em" style="text-anchor: end; visibility: inherit; font-family: Roboto, sans-serif; font-size: 12px; font-weight: 200;" fill="rgb(50, 49, 63)" stroke="none" stroke-width="1px">0.645</text><text x="0" y="283.5" dx="0em" dy="0.3em" style="text-anchor: end; visibility: inherit; font-family: Roboto, sans-serif; font-size: 12px; font-weight: 200;" fill="rgb(50, 49, 63)" stroke="none" stroke-width="1px">0.65</text><text x="0" y="236.25" dx="0em" dy="0.3em" style="text-anchor: end; visibility: inherit; font-family: Roboto, sans-serif; font-size: 12px; font-weight: 200;" fill="rgb(50, 49, 63)" stroke="none" stroke-width="1px">0.655</text><text x="0" y="189" dx="0em" dy="0.3em" style="text-anchor: end; visibility: inherit; font-family: Roboto, sans-serif; font-size: 12px; font-weight: 200;" fill="rgb(50, 49, 63)" stroke="none" stroke-width="1px">0.66</text><text x="0" y="141.75" dx="0em" dy="0.3em" style="text-anchor: end; visibility: inherit; font-family: Roboto, sans-serif; font-size: 12px; font-weight: 200;" fill="rgb(50, 49, 63)" stroke="none" stroke-width="1px">0.665</text><text x="0" y="94.5" dx="0em" dy="0.3em" style="text-anchor: end; visibility: inherit; font-family: Roboto, sans-serif; font-size: 12px; font-weight: 200;" fill="rgb(50, 49, 63)" stroke="none" stroke-width="1px">0.67</text><text x="0" y="47.25" dx="0em" dy="0.3em" style="text-anchor: end; visibility: inherit; font-family: Roboto, sans-serif; font-size: 12px; font-weight: 200;" fill="rgb(50, 49, 63)" stroke="none" stroke-width="1px">0.675</text><text x="0" y="0" dx="0em" dy="0.3em" style="text-anchor: end; visibility: hidden; font-family: Roboto, sans-serif; font-size: 12px; font-weight: 200;" fill="rgb(50, 49, 63)" stroke="none" stroke-width="1px">0.68</text></g><line x1="60" y1="0" x2="60" y2="378" fill="rgb(0, 0, 0)" stroke="rgb(204, 204, 204)" stroke-width="1px"></line></g></g><g transform="translate(60, 0)" clip-path="url(#clip_0)"><clipPath id="clip_0"><rect width="1436" height="378"></rect></clipPath><g><g><g><line x1="0" y1="0" x2="0" y2="378" fill="rgb(0, 0, 0)" stroke="rgb(60, 60, 60)" stroke-width="1px" opacity="0.25"></line><line x1="119.66666666666666" y1="0" x2="119.66666666666666" y2="378" fill="rgb(0, 0, 0)" stroke="rgb(60, 60, 60)" stroke-width="1px" opacity="0.25"></line><line x1="239.33333333333331" y1="0" x2="239.33333333333331" y2="378" fill="rgb(0, 0, 0)" stroke="rgb(60, 60, 60)" stroke-width="1px" opacity="0.25"></line><line x1="359" y1="0" x2="359" y2="378" fill="rgb(0, 0, 0)" stroke="rgb(60, 60, 60)" stroke-width="1px" opacity="0.25"></line><line x1="478.66666666666663" y1="0" x2="478.66666666666663" y2="378" fill="rgb(0, 0, 0)" stroke="rgb(60, 60, 60)" stroke-width="1px" opacity="0.25"></line><line x1="598.3333333333334" y1="0" x2="598.3333333333334" y2="378" fill="rgb(0, 0, 0)" stroke="rgb(60, 60, 60)" stroke-width="1px" opacity="0.25"></line><line x1="718" y1="0" x2="718" y2="378" fill="rgb(0, 0, 0)" stroke="rgb(60, 60, 60)" stroke-width="1px" opacity="0.25"></line><line x1="837.6666666666667" y1="0" x2="837.6666666666667" y2="378" fill="rgb(0, 0, 0)" stroke="rgb(60, 60, 60)" stroke-width="1px" opacity="0.25"></line><line x1="957.3333333333333" y1="0" x2="957.3333333333333" y2="378" fill="rgb(0, 0, 0)" stroke="rgb(60, 60, 60)" stroke-width="1px" opacity="0.25"></line><line x1="1077" y1="0" x2="1077" y2="378" fill="rgb(0, 0, 0)" stroke="rgb(60, 60, 60)" stroke-width="1px" opacity="0.25"></line><line x1="1196.6666666666667" y1="0" x2="1196.6666666666667" y2="378" fill="rgb(0, 0, 0)" stroke="rgb(60, 60, 60)" stroke-width="1px" opacity="0.25"></line><line x1="1316.3333333333333" y1="0" x2="1316.3333333333333" y2="378" fill="rgb(0, 0, 0)" stroke="rgb(60, 60, 60)" stroke-width="1px" opacity="0.25"></line><line x1="1436" y1="0" x2="1436" y2="378" fill="rgb(0, 0, 0)" stroke="rgb(60, 60, 60)" stroke-width="1px" opacity="0.25"></line></g><g><line x1="0" y1="378" x2="1436" y2="378" fill="rgb(0, 0, 0)" stroke="rgb(60, 60, 60)" stroke-width="1px" opacity="0.25"></line><line x1="0" y1="330.75" x2="1436" y2="330.75" fill="rgb(0, 0, 0)" stroke="rgb(60, 60, 60)" stroke-width="1px" opacity="0.25"></line><line x1="0" y1="283.5" x2="1436" y2="283.5" fill="rgb(0, 0, 0)" stroke="rgb(60, 60, 60)" stroke-width="1px" opacity="0.25"></line><line x1="0" y1="236.25" x2="1436" y2="236.25" fill="rgb(0, 0, 0)" stroke="rgb(60, 60, 60)" stroke-width="1px" opacity="0.25"></line><line x1="0" y1="189" x2="1436" y2="189" fill="rgb(0, 0, 0)" stroke="rgb(60, 60, 60)" stroke-width="1px" opacity="0.25"></line><line x1="0" y1="141.75" x2="1436" y2="141.75" fill="rgb(0, 0, 0)" stroke="rgb(60, 60, 60)" stroke-width="1px" opacity="0.25"></line><line x1="0" y1="94.5" x2="1436" y2="94.5" fill="rgb(0, 0, 0)" stroke="rgb(60, 60, 60)" stroke-width="1px" opacity="0.25"></line><line x1="0" y1="47.25" x2="1436" y2="47.25" fill="rgb(0, 0, 0)" stroke="rgb(60, 60, 60)" stroke-width="1px" opacity="0.25"></line><line x1="0" y1="0" x2="1436" y2="0" fill="rgb(0, 0, 0)" stroke="rgb(60, 60, 60)" stroke-width="1px" opacity="0.25"></line></g></g></g><g><g><line x1="0" y1="6425.9999999999945" x2="1436" y2="6425.9999999999945" fill="rgb(0, 0, 0)" stroke="rgb(153, 153, 153)" stroke-width="1.5px"></line></g></g><g><g><line x1="119.66666666666666" y1="0" x2="119.66666666666666" y2="378" fill="rgb(0, 0, 0)" stroke="rgb(153, 153, 153)" stroke-width="1.5px"></line></g></g><g><g><g><g><g><path stroke="rgb(0, 119, 187)" stroke-width="2px" d="M119.66666666666666,622.209955215454L143.6,373.6900398731233L167.53333333333333,267.4928287267687L191.46666666666667,195.8636859655383L215.4,167.52362644672422L239.33333333333331,161.91802418231998L263.26666666666665,150.7068196535114L287.2,140.4295066595081L311.1333333333333,126.7264226675037L335.06666666666666,136.06928086280857L359,134.20093452930485L382.93333333333334,144.16676259040867L406.8666666666667,138.2496753931049L430.8,136.06928086280857L454.7333333333333,142.6093379259113L478.66666666666663,143.23230779171024L502.59999999999997,151.95219612121616L526.5333333333333,169.0810511112216L550.4666666666667,166.27824997901945L574.4,170.3269908428195L598.3333333333334,172.5068221092227L622.2666666666667,185.27545130252867L646.2,189.94659876823454L670.1333333333333,197.73259556293516L694.0666666666667,189.3236289024356L718,199.91242682933836L741.9333333333334,212.05808615684535L765.8666666666667,207.07545375824L789.8000000000001,226.69562494754817L813.7333333333333,222.33539915084864L837.6666666666667,223.8922605514529L861.6,231.36677241325404L885.5333333333334,243.82391667366053L909.4666666666666,251.9208351373675L933.4,251.9208351373675L957.3333333333333,246.93820273876216L981.2666666666667,245.69226300716426L1005.1999999999999,261.5751782655718L1029.1333333333334,264.3785426616671L1053.0666666666666,268.7382051944735L1077,276.8356869220736L1100.9333333333334,287.42392158508324L1124.8666666666666,282.4412891864779L1148.8,275.2782622575762L1172.7333333333333,305.48666810989397L1196.6666666666667,306.4211229085924L1220.6,303.9298067092897L1244.5333333333333,311.7152402400972L1268.4666666666667,314.207119703293L1292.4,313.89563477039354" style="fill: none;" fill="none"></path></g><g><path stroke="rgb(255, 112, 67)" stroke-width="2px" d="M119.66666666666666,641.2071565389632L143.6,355.93821501731884L167.53333333333333,252.23232007026698L191.46666666666667,211.12363135814692L215.4,157.2468767166141L239.33333333333331,158.1807682514194L263.26666666666665,138.2496753931049L287.2,145.1012173891071L311.1333333333333,134.8239043951038L335.06666666666666,133.5779646635059L359,132.6440731287006L382.93333333333334,131.3981333971027L406.8666666666667,126.41550099849735L430.8,132.02110326290165L454.7333333333333,137.31522059440647L478.66666666666663,127.34939253330265L502.59999999999997,120.1869288682941L526.5333333333333,143.8552776575092L550.4666666666667,126.7264226675037L574.4,122.05527520179783L598.3333333333334,128.59533226490055L622.2666666666667,119.25247406959568L646.2,134.8239043951038L670.1333333333333,133.26647973060642L694.0666666666667,137.003735661507L718,135.13538932800327L741.9333333333334,132.95499479770695L765.8666666666667,129.2183021306995L789.8000000000001,141.36396145820652L813.7333333333333,139.1835669279102L837.6666666666667,145.41213905811344L861.6,139.80653679370914L885.5333333333334,141.98693132400547L909.4666666666666,143.54379272460972L933.4,145.1012173891071L957.3333333333333,145.1012173891071L981.2666666666667,142.92082285881077L1005.1999999999999,137.93819046020542L1029.1333333333334,138.56116032600437L1053.0666666666666,140.4295066595081L1077,139.49505186080967L1100.9333333333334,136.38076579570804L1124.8666666666666,136.38076579570804L1148.8,135.75835919380222L1172.7333333333333,134.20093452930485L1196.6666666666667,134.8239043951038L1220.6,136.06928086280857L1244.5333333333333,137.62670552730594L1268.4666666666667,138.2496753931049L1292.4,138.2496753931049" style="fill: none;" fill="none"></path></g><g><path stroke="rgb(51, 187, 238)" stroke-width="2px" d="M119.66666666666666,632.7987531423568L143.6,377.7382174730302L167.53333333333333,255.65809106826808L191.46666666666667,195.2412793636325L215.4,157.86928331851993L239.33333333333331,124.5465914011005L263.26666666666665,106.79532980918923L287.2,95.5835620164875L311.1333333333333,91.53538441658058L335.06666666666666,86.24070382118263L359,86.24070382118263L382.93333333333334,86.24070382118263L406.8666666666667,86.24070382118263L430.8,86.24070382118263L454.7333333333333,86.24070382118263L478.66666666666663,86.24070382118263L502.59999999999997,86.24070382118263L526.5333333333333,86.24070382118263L550.4666666666667,86.24070382118263L574.4,86.24070382118263L598.3333333333334,86.24070382118263L622.2666666666667,86.24070382118263L646.2,86.24070382118263L670.1333333333333,86.24070382118263L694.0666666666667,86.24070382118263L718,86.24070382118263L741.9333333333334,86.24070382118263L765.8666666666667,86.24070382118263L789.8000000000001,86.24070382118263L813.7333333333333,86.24070382118263L837.6666666666667,86.24070382118263L861.6,86.24070382118263L885.5333333333334,86.24070382118263L909.4666666666666,86.24070382118263L933.4,86.24070382118263L957.3333333333333,86.24070382118263L981.2666666666667,86.24070382118263L1005.1999999999999,86.24070382118263L1029.1333333333334,86.24070382118263L1053.0666666666666,86.24070382118263L1077,86.24070382118263L1100.9333333333334,86.24070382118263L1124.8666666666666,86.24070382118263L1148.8,86.24070382118263L1172.7333333333333,86.24070382118263L1196.6666666666667,86.24070382118263L1220.6,86.24070382118263L1244.5333333333333,86.24070382118263L1268.4666666666667,86.24070382118263L1292.4,86.24070382118263" style="fill: none;" fill="none"></path></g><g><path stroke="rgb(238, 51, 119)" stroke-width="2px" d="M119.66666666666666,632.7987531423568L143.6,352.8239289522173L167.53333333333333,266.86985886096977L191.46666666666667,199.91242682933836L215.4,171.57236731052427L239.33333333333331,166.58973491191892L263.26666666666665,141.98693132400547L287.2,144.47824752330814L311.1333333333333,138.87264525890384L335.06666666666666,129.84070873260532L359,134.20093452930485L382.93333333333334,128.59533226490055L406.8666666666667,141.05247652530704L430.8,132.95499479770695L454.7333333333333,146.96956372261081L478.66666666666663,152.26368105411564L502.59999999999997,151.95219612121616L526.5333333333333,161.91802418231998L550.4666666666667,162.54099404811893L574.4,158.49225318431888L598.3333333333334,172.5068221092227L622.2666666666667,188.0782524347308L646.2,187.1437976360324L670.1333333333333,187.1437976360324L694.0666666666667,200.22391176223783L718,190.258083701134L741.9333333333334,193.6838546991351L765.8666666666667,203.96116769313838L789.8000000000001,217.97517335414912L813.7333333333333,221.40094435215022L837.6666666666667,220.46705281734492L861.6,224.82671535015132L885.5333333333334,242.8894618749621L909.4666666666666,246.93820273876216L933.4,241.64408540725734L957.3333333333333,248.49562740325953L981.2666666666667,246.62671780586268L1005.1999999999999,254.4127146005633L1029.1333333333334,265.3124341964724L1053.0666666666666,275.5897471904757L1077,266.2468889951708L1100.9333333333334,272.78694605827354L1124.8666666666666,286.4894667863848L1148.8,298.63568937778496L1172.7333333333333,291.78414738178276L1196.6666666666667,299.88106584548973L1220.6,296.14380991458916L1244.5333333333333,304.55277657508867L1268.4666666666667,297.0782647132876L1292.4,311.0928336381914" style="fill: none;" fill="none"></path></g></g></g></g></g></g><g transform="translate(60, 378)" clip-path="url(#clip_1)"><clipPath id="clip_1"><rect width="1436" height="22"></rect></clipPath><g><g><line x1="0" y1="0" x2="0" y2="5" style="visibility: inherit;" fill="rgb(0, 0, 0)" stroke="rgb(204, 204, 204)" stroke-width="1px"></line><line x1="119.66666666666666" y1="0" x2="119.66666666666666" y2="5" style="visibility: inherit;" fill="rgb(0, 0, 0)" stroke="rgb(204, 204, 204)" stroke-width="1px"></line><line x1="239.33333333333331" y1="0" x2="239.33333333333331" y2="5" style="visibility: inherit;" fill="rgb(0, 0, 0)" stroke="rgb(204, 204, 204)" stroke-width="1px"></line><line x1="359" y1="0" x2="359" y2="5" style="visibility: inherit;" fill="rgb(0, 0, 0)" stroke="rgb(204, 204, 204)" stroke-width="1px"></line><line x1="478.66666666666663" y1="0" x2="478.66666666666663" y2="5" style="visibility: inherit;" fill="rgb(0, 0, 0)" stroke="rgb(204, 204, 204)" stroke-width="1px"></line><line x1="598.3333333333334" y1="0" x2="598.3333333333334" y2="5" style="visibility: inherit;" fill="rgb(0, 0, 0)" stroke="rgb(204, 204, 204)" stroke-width="1px"></line><line x1="718" y1="0" x2="718" y2="5" style="visibility: inherit;" fill="rgb(0, 0, 0)" stroke="rgb(204, 204, 204)" stroke-width="1px"></line><line x1="837.6666666666667" y1="0" x2="837.6666666666667" y2="5" style="visibility: inherit;" fill="rgb(0, 0, 0)" stroke="rgb(204, 204, 204)" stroke-width="1px"></line><line x1="957.3333333333333" y1="0" x2="957.3333333333333" y2="5" style="visibility: inherit;" fill="rgb(0, 0, 0)" stroke="rgb(204, 204, 204)" stroke-width="1px"></line><line x1="1077" y1="0" x2="1077" y2="5" style="visibility: inherit;" fill="rgb(0, 0, 0)" stroke="rgb(204, 204, 204)" stroke-width="1px"></line><line x1="1196.6666666666667" y1="0" x2="1196.6666666666667" y2="5" style="visibility: inherit;" fill="rgb(0, 0, 0)" stroke="rgb(204, 204, 204)" stroke-width="1px"></line><line x1="1316.3333333333333" y1="0" x2="1316.3333333333333" y2="5" style="visibility: inherit;" fill="rgb(0, 0, 0)" stroke="rgb(204, 204, 204)" stroke-width="1px"></line><line x1="1436" y1="0" x2="1436" y2="5" style="visibility: inherit;" fill="rgb(0, 0, 0)" stroke="rgb(204, 204, 204)" stroke-width="1px"></line></g><g transform="translate(0, 8)"><text x="0" y="0" dx="0em" dy="0.95em" style="text-anchor: middle; visibility: hidden; font-family: Roboto, sans-serif; font-size: 12px; font-weight: 200;" fill="rgb(50, 49, 63)" stroke="none" stroke-width="1px">-5</text><text x="119.66666666666666" y="0" dx="0em" dy="0.95em" style="text-anchor: middle; visibility: inherit; font-family: Roboto, sans-serif; font-size: 12px; font-weight: 200;" fill="rgb(50, 49, 63)" stroke="none" stroke-width="1px">0</text><text x="239.33333333333331" y="0" dx="0em" dy="0.95em" style="text-anchor: middle; visibility: inherit; font-family: Roboto, sans-serif; font-size: 12px; font-weight: 200;" fill="rgb(50, 49, 63)" stroke="none" stroke-width="1px">5</text><text x="359" y="0" dx="0em" dy="0.95em" style="text-anchor: middle; visibility: inherit; font-family: Roboto, sans-serif; font-size: 12px; font-weight: 200;" fill="rgb(50, 49, 63)" stroke="none" stroke-width="1px">10</text><text x="478.66666666666663" y="0" dx="0em" dy="0.95em" style="text-anchor: middle; visibility: inherit; font-family: Roboto, sans-serif; font-size: 12px; font-weight: 200;" fill="rgb(50, 49, 63)" stroke="none" stroke-width="1px">15</text><text x="598.3333333333334" y="0" dx="0em" dy="0.95em" style="text-anchor: middle; visibility: inherit; font-family: Roboto, sans-serif; font-size: 12px; font-weight: 200;" fill="rgb(50, 49, 63)" stroke="none" stroke-width="1px">20</text><text x="718" y="0" dx="0em" dy="0.95em" style="text-anchor: middle; visibility: inherit; font-family: Roboto, sans-serif; font-size: 12px; font-weight: 200;" fill="rgb(50, 49, 63)" stroke="none" stroke-width="1px">25</text><text x="837.6666666666667" y="0" dx="0em" dy="0.95em" style="text-anchor: middle; visibility: inherit; font-family: Roboto, sans-serif; font-size: 12px; font-weight: 200;" fill="rgb(50, 49, 63)" stroke="none" stroke-width="1px">30</text><text x="957.3333333333333" y="0" dx="0em" dy="0.95em" style="text-anchor: middle; visibility: inherit; font-family: Roboto, sans-serif; font-size: 12px; font-weight: 200;" fill="rgb(50, 49, 63)" stroke="none" stroke-width="1px">35</text><text x="1077" y="0" dx="0em" dy="0.95em" style="text-anchor: middle; visibility: inherit; font-family: Roboto, sans-serif; font-size: 12px; font-weight: 200;" fill="rgb(50, 49, 63)" stroke="none" stroke-width="1px">40</text><text x="1196.6666666666667" y="0" dx="0em" dy="0.95em" style="text-anchor: middle; visibility: inherit; font-family: Roboto, sans-serif; font-size: 12px; font-weight: 200;" fill="rgb(50, 49, 63)" stroke="none" stroke-width="1px">45</text><text x="1316.3333333333333" y="0" dx="0em" dy="0.95em" style="text-anchor: middle; visibility: inherit; font-family: Roboto, sans-serif; font-size: 12px; font-weight: 200;" fill="rgb(50, 49, 63)" stroke="none" stroke-width="1px">50</text><text x="1436" y="0" dx="0em" dy="0.95em" style="text-anchor: middle; visibility: hidden; font-family: Roboto, sans-serif; font-size: 12px; font-weight: 200;" fill="rgb(50, 49, 63)" stroke="none" stroke-width="1px">55</text></g><line x1="0" y1="0" x2="1436" y2="0" fill="rgb(0, 0, 0)" stroke="rgb(204, 204, 204)" stroke-width="1px"></line></g></g></g></g></svg>