<svg viewBox="0 0 1496 400" xmlns="http://www.w3.org/2000/svg"><g><g><g><g><g><line x1="50" y1="378" x2="45" y2="378" style="visibility: inherit;" fill="rgb(0, 0, 0)" stroke="rgb(204, 204, 204)" stroke-width="1px"></line><line x1="50" y1="330.74999999999994" x2="45" y2="330.74999999999994" style="visibility: inherit;" fill="rgb(0, 0, 0)" stroke="rgb(204, 204, 204)" stroke-width="1px"></line><line x1="50" y1="283.5" x2="45" y2="283.5" style="visibility: inherit;" fill="rgb(0, 0, 0)" stroke="rgb(204, 204, 204)" stroke-width="1px"></line><line x1="50" y1="236.25" x2="45" y2="236.25" style="visibility: inherit;" fill="rgb(0, 0, 0)" stroke="rgb(204, 204, 204)" stroke-width="1px"></line><line x1="50" y1="189.00000000000003" x2="45" y2="189.00000000000003" style="visibility: inherit;" fill="rgb(0, 0, 0)" stroke="rgb(204, 204, 204)" stroke-width="1px"></line><line x1="50" y1="141.75" x2="45" y2="141.75" style="visibility: inherit;" fill="rgb(0, 0, 0)" stroke="rgb(204, 204, 204)" stroke-width="1px"></line><line x1="50" y1="94.49999999999996" x2="45" y2="94.49999999999996" style="visibility: inherit;" fill="rgb(0, 0, 0)" stroke="rgb(204, 204, 204)" stroke-width="1px"></line><line x1="50" y1="47.25000000000004" x2="45" y2="47.25000000000004" style="visibility: inherit;" fill="rgb(0, 0, 0)" stroke="rgb(204, 204, 204)" stroke-width="1px"></line><line x1="50" y1="0" x2="45" y2="0" style="visibility: inherit;" fill="rgb(0, 0, 0)" stroke="rgb(204, 204, 204)" stroke-width="1px"></line></g><g transform="translate(40, 0)"><text x="0" y="378" dx="0em" dy="0.3em" style="text-anchor: end; visibility: hidden; font-family: Roboto, sans-serif; font-size: 12px; font-weight: 200;" fill="rgb(50, 49, 63)" stroke="none" stroke-width="1px">0.5</text><text x="0" y="330.74999999999994" dx="0em" dy="0.3em" style="text-anchor: end; visibility: inherit; font-family: Roboto, sans-serif; font-size: 12px; font-weight: 200;" fill="rgb(50, 49, 63)" stroke="none" stroke-width="1px">0.55</text><text x="0" y="283.5" dx="0em" dy="0.3em" style="text-anchor: end; visibility: inherit; font-family: Roboto, sans-serif; font-size: 12px; font-weight: 200;" fill="rgb(50, 49, 63)" stroke="none" stroke-width="1px">0.6</text><text x="0" y="236.25" dx="0em" dy="0.3em" style="text-anchor: end; visibility: inherit; font-family: Roboto, sans-serif; font-size: 12px; font-weight: 200;" fill="rgb(50, 49, 63)" stroke="none" stroke-width="1px">0.65</text><text x="0" y="189.00000000000003" dx="0em" dy="0.3em" style="text-anchor: end; visibility: inherit; font-family: Roboto, sans-serif; font-size: 12px; font-weight: 200;" fill="rgb(50, 49, 63)" stroke="none" stroke-width="1px">0.7</text><text x="0" y="141.75" dx="0em" dy="0.3em" style="text-anchor: end; visibility: inherit; font-family: Roboto, sans-serif; font-size: 12px; font-weight: 200;" fill="rgb(50, 49, 63)" stroke="none" stroke-width="1px">0.75</text><text x="0" y="94.49999999999996" dx="0em" dy="0.3em" style="text-anchor: end; visibility: inherit; font-family: Roboto, sans-serif; font-size: 12px; font-weight: 200;" fill="rgb(50, 49, 63)" stroke="none" stroke-width="1px">0.8</text><text x="0" y="47.25000000000004" dx="0em" dy="0.3em" style="text-anchor: end; visibility: inherit; font-family: Roboto, sans-serif; font-size: 12px; font-weight: 200;" fill="rgb(50, 49, 63)" stroke="none" stroke-width="1px">0.85</text><text x="0" y="0" dx="0em" dy="0.3em" style="text-anchor: end; visibility: hidden; font-family: Roboto, sans-serif; font-size: 12px; font-weight: 200;" fill="rgb(50, 49, 63)" stroke="none" stroke-width="1px">0.9</text></g><line x1="50" y1="0" x2="50" y2="378" fill="rgb(0, 0, 0)" stroke="rgb(204, 204, 204)" stroke-width="1px"></line></g></g><g transform="translate(50, 0)" clip-path="url(#clip_0)"><clipPath id="clip_0"><rect width="1446" height="378"></rect></clipPath><g><g><g><line x1="0" y1="0" x2="0" y2="378" fill="rgb(0, 0, 0)" stroke="rgb(60, 60, 60)" stroke-width="1px" opacity="0.25"></line><line x1="120.5" y1="0" x2="120.5" y2="378" fill="rgb(0, 0, 0)" stroke="rgb(60, 60, 60)" stroke-width="1px" opacity="0.25"></line><line x1="241" y1="0" x2="241" y2="378" fill="rgb(0, 0, 0)" stroke="rgb(60, 60, 60)" stroke-width="1px" opacity="0.25"></line><line x1="361.5" y1="0" x2="361.5" y2="378" fill="rgb(0, 0, 0)" stroke="rgb(60, 60, 60)" stroke-width="1px" opacity="0.25"></line><line x1="482" y1="0" x2="482" y2="378" fill="rgb(0, 0, 0)" stroke="rgb(60, 60, 60)" stroke-width="1px" opacity="0.25"></line><line x1="602.5" y1="0" x2="602.5" y2="378" fill="rgb(0, 0, 0)" stroke="rgb(60, 60, 60)" stroke-width="1px" opacity="0.25"></line><line x1="723" y1="0" x2="723" y2="378" fill="rgb(0, 0, 0)" stroke="rgb(60, 60, 60)" stroke-width="1px" opacity="0.25"></line><line x1="843.5" y1="0" x2="843.5" y2="378" fill="rgb(0, 0, 0)" stroke="rgb(60, 60, 60)" stroke-width="1px" opacity="0.25"></line><line x1="964" y1="0" x2="964" y2="378" fill="rgb(0, 0, 0)" stroke="rgb(60, 60, 60)" stroke-width="1px" opacity="0.25"></line><line x1="1084.5" y1="0" x2="1084.5" y2="378" fill="rgb(0, 0, 0)" stroke="rgb(60, 60, 60)" stroke-width="1px" opacity="0.25"></line><line x1="1205" y1="0" x2="1205" y2="378" fill="rgb(0, 0, 0)" stroke="rgb(60, 60, 60)" stroke-width="1px" opacity="0.25"></line><line x1="1325.5" y1="0" x2="1325.5" y2="378" fill="rgb(0, 0, 0)" stroke="rgb(60, 60, 60)" stroke-width="1px" opacity="0.25"></line><line x1="1446" y1="0" x2="1446" y2="378" fill="rgb(0, 0, 0)" stroke="rgb(60, 60, 60)" stroke-width="1px" opacity="0.25"></line></g><g><line x1="0" y1="378" x2="1446" y2="378" fill="rgb(0, 0, 0)" stroke="rgb(60, 60, 60)" stroke-width="1px" opacity="0.25"></line><line x1="0" y1="330.74999999999994" x2="1446" y2="330.74999999999994" fill="rgb(0, 0, 0)" stroke="rgb(60, 60, 60)" stroke-width="1px" opacity="0.25"></line><line x1="0" y1="283.5" x2="1446" y2="283.5" fill="rgb(0, 0, 0)" stroke="rgb(60, 60, 60)" stroke-width="1px" opacity="0.25"></line><line x1="0" y1="236.25" x2="1446" y2="236.25" fill="rgb(0, 0, 0)" stroke="rgb(60, 60, 60)" stroke-width="1px" opacity="0.25"></line><line x1="0" y1="189.00000000000003" x2="1446" y2="189.00000000000003" fill="rgb(0, 0, 0)" stroke="rgb(60, 60, 60)" stroke-width="1px" opacity="0.25"></line><line x1="0" y1="141.75" x2="1446" y2="141.75" fill="rgb(0, 0, 0)" stroke="rgb(60, 60, 60)" stroke-width="1px" opacity="0.25"></line><line x1="0" y1="94.49999999999996" x2="1446" y2="94.49999999999996" fill="rgb(0, 0, 0)" stroke="rgb(60, 60, 60)" stroke-width="1px" opacity="0.25"></line><line x1="0" y1="47.25000000000004" x2="1446" y2="47.25000000000004" fill="rgb(0, 0, 0)" stroke="rgb(60, 60, 60)" stroke-width="1px" opacity="0.25"></line><line x1="0" y1="0" x2="1446" y2="0" fill="rgb(0, 0, 0)" stroke="rgb(60, 60, 60)" stroke-width="1px" opacity="0.25"></line></g></g></g><g><g><line x1="0" y1="850.5" x2="1446" y2="850.5" fill="rgb(0, 0, 0)" stroke="rgb(153, 153, 153)" stroke-width="1.5px"></line></g></g><g><g><line x1="120.5" y1="0" x2="120.5" y2="378" fill="rgb(0, 0, 0)" stroke="rgb(153, 153, 153)" stroke-width="1.5px"></line></g></g><g><g><g><g><g><path stroke="rgb(51, 187, 238)" stroke-width="2px" d="M120.5,291.2047516107559L144.6,289.27388298511505L168.7,282.0487280488014L192.8,284.4467677474022L216.9,283.6370195746422L241,286.8136026263237L265.09999999999997,285.50559121370316L289.2,282.95186537504196L313.3,280.58503049612045L337.4,281.3635738492012L361.5,286.6579164862633L385.6,284.9761794805527L409.7,284.16643130779266L433.8,286.8136026263237L457.9,288.33959716558456L482,283.0453108549118L506.09999999999997,285.599036693573L530.1999999999999,283.07645934820175L554.3000000000001,288.9624543786049L578.4,285.2564595937729L602.5,285.16301411390305L626.6,287.18732821941376L650.7,290.3016142845154L674.8,284.3221737742424L698.9,289.86559170484543L723,291.01791697740555L747.1,285.34990507364273L771.2,283.94844818115234L795.3000000000001,288.52648812532425L819.4,285.1318656206131L843.5,287.0938827395439L867.6,289.0870483517647L891.7,286.8136026263237L915.8,285.0696249604225L939.9,286.96934509277344L964,285.84816831350327L988.1,286.5333225131035L1012.1999999999999,289.1181968450546L1036.3,284.789288520813L1060.3999999999999,287.37416285276413L1084.5,290.61304289102554L1108.6000000000001,286.4710255265236L1132.7,287.2807736992836L1156.8,286.09729993343353L1180.9,286.1907454133034L1205,287.2807736992836L1229.1,289.7722025513649L1253.2,284.22872829437256L1277.3,285.0073279738426L1301.4,286.09729993343353" style="fill: none;" fill="none"></path></g><g><path stroke="rgb(204, 51, 17)" stroke-width="2px" d="M120.5,342.81127113103867L144.6,257.868822991848L168.7,231.25325220823288L192.8,213.03695994615555L216.9,203.48744022846222L241,193.25580793619156L265.09999999999997,187.34424072504044L289.2,180.0951470732689L313.3,176.6712348461151L337.4,171.3882701396942L361.5,168.44583588838577L385.6,166.19886356592178L409.7,161.7451359629631L433.8,159.484814286232L457.9,155.83351242542267L482,152.50321465730667L506.09999999999997,150.68426656723022L530.1999999999999,150.416772544384L554.3000000000001,145.98974364995956L578.4,146.24388831853867L602.5,145.50826567411423L626.6,142.40535753965378L650.7,142.04424905776978L674.8,139.22218430042267L698.9,139.52978271245956L723,136.0657660961151L747.1,137.336376786232L771.2,133.1367375254631L795.3000000000001,134.99579000473022L819.4,131.81261676549911L843.5,132.45462495088577L867.6,129.8064397573471L891.7,129.94015860557556L915.8,128.89693754911423L939.9,128.25498569011688L964,125.8073787689209L988.1,126.6767765879631L1012.1999999999999,124.97819799184799L1036.3,125.00495302677155L1060.3999999999999,123.26621371507645L1084.5,123.61397284269333L1108.6000000000001,122.83824580907822L1132.7,120.17665493488312L1156.8,120.19006061553955L1180.9,122.65096056461334L1205,119.52129739522934L1229.1,119.81554645299911L1253.2,119.38757854700089L1277.3,118.71881532669067L1301.4,118.95955431461334" style="fill: none;" fill="none"></path></g><g><path stroke="rgb(0, 119, 187)" stroke-width="2px" d="M120.5,270.1209955215454L144.6,245.26900398731232L168.7,234.64928287267685L192.8,227.4863685965538L216.9,224.6523626446724L241,224.09180241823196L265.09999999999997,222.9706819653511L289.2,221.94295066595078L313.3,220.57264226675034L337.4,221.50692808628082L361.5,221.32009345293045L385.6,222.31667625904083L409.7,221.72496753931046L433.8,221.50692808628082L457.9,222.1609337925911L482,222.223230779171L506.09999999999997,223.09521961212158L530.1999999999999,224.80810511112213L554.3000000000001,224.52782499790192L578.4,224.93269908428192L602.5,225.15068221092224L626.6,226.42754513025284L650.7,226.89465987682343L674.8,227.6732595562935L698.9,226.83236289024353L723,227.8912426829338L747.1,229.1058086156845L771.2,228.60754537582397L795.3000000000001,230.5695624947548L819.4,230.13353991508484L843.5,230.28922605514526L867.6,231.03667724132538L891.7,232.28239166736603L915.8,233.09208351373672L939.9,233.09208351373672L964,232.5938202738762L988.1,232.4692263007164L1012.1999999999999,234.05751782655716L1036.3,234.3378542661667L1060.3999999999999,234.77382051944733L1084.5,235.58356869220734L1108.6000000000001,236.6423921585083L1132.7,236.14412891864777L1156.8,235.4278262257576L1180.9,238.44866681098938L1205,238.54211229085922L1229.1,238.29298067092896L1253.2,239.0715240240097L1277.3,239.32071197032928L1301.4,239.28956347703934" style="fill: none;" fill="none"></path></g><g><path stroke="rgb(255, 112, 67)" stroke-width="2px" d="M120.5,350.0603084564209L144.6,243.33053129911423L168.7,212.20772284269333L192.8,191.8381290435791L216.9,174.87904179096222L241,164.52704000473022L265.09999999999997,153.14522284269333L289.2,146.04325371980667L313.3,137.47009563446045L337.4,132.96285796165466L361.5,126.1150335073471L385.6,121.38040620088577L409.7,117.87622886896133L433.8,114.1179631948471L457.9,110.10555285215378L482,105.22380101680756L506.09999999999997,103.32458782196045L530.1999999999999,100.39555925130844L554.3000000000001,97.57349449396133L578.4,95.15269893407822L602.5,94.09607219696045L626.6,90.15057760477066L650.7,89.13411158323288L674.8,86.72666537761688L698.9,85.255420088768L723,83.46322703361511L747.1,80.54754781723022L771.2,80.19978868961334L795.3000000000001,78.36749124526978L819.4,76.65550696849823L843.5,77.96622204780579L867.6,76.16067963838577L891.7,74.98368340730667L915.8,71.89412462711334L939.9,70.58340954780579L964,71.49291175603867L988.1,70.79744982719421L1012.1999999999999,70.00831711292267L1036.3,67.01237279176712L1060.3999999999999,68.26963412761688L1084.5,64.44445270299911L1108.6000000000001,64.32408320903778L1132.7,64.08334422111511L1156.8,63.441336035728455L1180.9,63.12038826942444L1205,63.668725669384L1229.1,62.277745485305786L1253.2,61.074050545692444L1277.3,60.151198983192444L1301.4,61.06070119142532" style="fill: none;" fill="none"></path></g><g><path stroke="rgb(0, 153, 136)" stroke-width="2px" d="M120.5,416.89748364686966L144.6,351.3416774868965L168.7,321.88049751520157L192.8,303.47506123781204L216.9,290.9867684841156L241,281.05214524269104L265.09999999999997,272.36329275369644L289.2,265.9167374968529L313.3,261.2141599059105L337.4,256.26245069503784L361.5,252.77443903684616L385.6,249.66015297174454L409.7,246.078695833683L433.8,243.7118609547615L457.9,241.09583812952042L482,239.56984359025955L506.09999999999997,237.5143809914589L530.1999999999999,235.80155181884766L554.3000000000001,233.8706831932068L578.4,232.28239166736603L602.5,230.97438025474548L626.6,229.6352766752243L650.7,228.07807731628418L674.8,227.8289456963539L698.9,226.42754513025284L723,225.49325931072235L747.1,224.9949397444725L771.2,224.1852478981018L795.3000000000001,223.81152230501175L819.4,223.09521961212158L843.5,222.59695637226105L867.6,221.13325881958008L891.7,221.25779646635056L915.8,220.66608774662018L939.9,220.1989730000496L964,219.98093354701996L988.1,219.3269278407097L1012.1999999999999,219.17124170064926L1036.3,218.29925286769867L1060.3999999999999,217.7075441479683L1084.5,217.39611554145813L1108.6000000000001,217.08468693494797L1132.7,216.7732583284378L1156.8,216.86664748191833L1180.9,216.89779597520828L1205,216.8354989886284L1229.1,216.52407038211823L1253.2,216.52407038211823L1277.3,216.4306812286377L1301.4,215.71437853574753" style="fill: none;" fill="none"></path></g><g><path stroke="rgb(238, 51, 119)" stroke-width="2px" d="M144.6,379.564831584692L168.7,331.1887149810791L192.8,308.0104057788849L216.9,290.04825818538666L241,275.73735612630844L265.09999999999997,265.18471974134445L289.2,256.7988469004631L313.3,247.24932718276978L337.4,242.2338001728058L361.5,235.81399995088577L385.6,228.63176572322845L409.7,223.20167648792267L433.8,219.85802936553955L457.9,214.74888789653778L482,210.64286309480667L506.09999999999997,206.68396282196045L530.1999999999999,204.3968861103058L554.3000000000001,200.8660100698471L578.4,197.38858777284622L602.5,194.27227395772934L626.6,191.15601646900177L650.7,189.377172768116L674.8,186.407983481884L698.9,184.01394295692444L723,181.24538826942444L747.1,178.69081753492355L771.2,175.4808892607689L795.3000000000001,175.15988516807556L819.4,170.57238239049911L843.5,170.01063930988312L867.6,168.48594027757645L891.7,166.93448621034622L915.8,165.35627710819244L939.9,163.30993938446045L964,161.57125639915466L988.1,160.52803534269333L1012.1999999999999,158.38808315992355L1036.3,156.97034794092178L1060.3999999999999,154.38907849788666L1084.5,153.586596429348L1108.6000000000001,153.72031527757645L1132.7,149.86843514442444L1156.8,150.22954362630844L1180.9,147.92911756038666L1205,146.2572376728058L1229.1,145.10705280303955L1253.2,143.27469903230667L1277.3,142.32509243488312L1301.4,141.72324496507645" style="fill: none;" fill="none"></path></g></g></g></g></g></g><g transform="translate(50, 378)" clip-path="url(#clip_1)"><clipPath id="clip_1"><rect width="1446" height="22"></rect></clipPath><g><g><line x1="0" y1="0" x2="0" y2="5" style="visibility: inherit;" fill="rgb(0, 0, 0)" stroke="rgb(204, 204, 204)" stroke-width="1px"></line><line x1="120.5" y1="0" x2="120.5" y2="5" style="visibility: inherit;" fill="rgb(0, 0, 0)" stroke="rgb(204, 204, 204)" stroke-width="1px"></line><line x1="241" y1="0" x2="241" y2="5" style="visibility: inherit;" fill="rgb(0, 0, 0)" stroke="rgb(204, 204, 204)" stroke-width="1px"></line><line x1="361.5" y1="0" x2="361.5" y2="5" style="visibility: inherit;" fill="rgb(0, 0, 0)" stroke="rgb(204, 204, 204)" stroke-width="1px"></line><line x1="482" y1="0" x2="482" y2="5" style="visibility: inherit;" fill="rgb(0, 0, 0)" stroke="rgb(204, 204, 204)" stroke-width="1px"></line><line x1="602.5" y1="0" x2="602.5" y2="5" style="visibility: inherit;" fill="rgb(0, 0, 0)" stroke="rgb(204, 204, 204)" stroke-width="1px"></line><line x1="723" y1="0" x2="723" y2="5" style="visibility: inherit;" fill="rgb(0, 0, 0)" stroke="rgb(204, 204, 204)" stroke-width="1px"></line><line x1="843.5" y1="0" x2="843.5" y2="5" style="visibility: inherit;" fill="rgb(0, 0, 0)" stroke="rgb(204, 204, 204)" stroke-width="1px"></line><line x1="964" y1="0" x2="964" y2="5" style="visibility: inherit;" fill="rgb(0, 0, 0)" stroke="rgb(204, 204, 204)" stroke-width="1px"></line><line x1="1084.5" y1="0" x2="1084.5" y2="5" style="visibility: inherit;" fill="rgb(0, 0, 0)" stroke="rgb(204, 204, 204)" stroke-width="1px"></line><line x1="1205" y1="0" x2="1205" y2="5" style="visibility: inherit;" fill="rgb(0, 0, 0)" stroke="rgb(204, 204, 204)" stroke-width="1px"></line><line x1="1325.5" y1="0" x2="1325.5" y2="5" style="visibility: inherit;" fill="rgb(0, 0, 0)" stroke="rgb(204, 204, 204)" stroke-width="1px"></line><line x1="1446" y1="0" x2="1446" y2="5" style="visibility: inherit;" fill="rgb(0, 0, 0)" stroke="rgb(204, 204, 204)" stroke-width="1px"></line></g><g transform="translate(0, 8)"><text x="0" y="0" dx="0em" dy="0.95em" style="text-anchor: middle; visibility: hidden; font-family: Roboto, sans-serif; font-size: 12px; font-weight: 200;" fill="rgb(50, 49, 63)" stroke="none" stroke-width="1px">-5</text><text x="120.5" y="0" dx="0em" dy="0.95em" style="text-anchor: middle; visibility: inherit; font-family: Roboto, sans-serif; font-size: 12px; font-weight: 200;" fill="rgb(50, 49, 63)" stroke="none" stroke-width="1px">0</text><text x="241" y="0" dx="0em" dy="0.95em" style="text-anchor: middle; visibility: inherit; font-family: Roboto, sans-serif; font-size: 12px; font-weight: 200;" fill="rgb(50, 49, 63)" stroke="none" stroke-width="1px">5</text><text x="361.5" y="0" dx="0em" dy="0.95em" style="text-anchor: middle; visibility: inherit; font-family: Roboto, sans-serif; font-size: 12px; font-weight: 200;" fill="rgb(50, 49, 63)" stroke="none" stroke-width="1px">10</text><text x="482" y="0" dx="0em" dy="0.95em" style="text-anchor: middle; visibility: inherit; font-family: Roboto, sans-serif; font-size: 12px; font-weight: 200;" fill="rgb(50, 49, 63)" stroke="none" stroke-width="1px">15</text><text x="602.5" y="0" dx="0em" dy="0.95em" style="text-anchor: middle; visibility: inherit; font-family: Roboto, sans-serif; font-size: 12px; font-weight: 200;" fill="rgb(50, 49, 63)" stroke="none" stroke-width="1px">20</text><text x="723" y="0" dx="0em" dy="0.95em" style="text-anchor: middle; visibility: inherit; font-family: Roboto, sans-serif; font-size: 12px; font-weight: 200;" fill="rgb(50, 49, 63)" stroke="none" stroke-width="1px">25</text><text x="843.5" y="0" dx="0em" dy="0.95em" style="text-anchor: middle; visibility: inherit; font-family: Roboto, sans-serif; font-size: 12px; font-weight: 200;" fill="rgb(50, 49, 63)" stroke="none" stroke-width="1px">30</text><text x="964" y="0" dx="0em" dy="0.95em" style="text-anchor: middle; visibility: inherit; font-family: Roboto, sans-serif; font-size: 12px; font-weight: 200;" fill="rgb(50, 49, 63)" stroke="none" stroke-width="1px">35</text><text x="1084.5" y="0" dx="0em" dy="0.95em" style="text-anchor: middle; visibility: inherit; font-family: Roboto, sans-serif; font-size: 12px; font-weight: 200;" fill="rgb(50, 49, 63)" stroke="none" stroke-width="1px">40</text><text x="1205" y="0" dx="0em" dy="0.95em" style="text-anchor: middle; visibility: inherit; font-family: Roboto, sans-serif; font-size: 12px; font-weight: 200;" fill="rgb(50, 49, 63)" stroke="none" stroke-width="1px">45</text><text x="1325.5" y="0" dx="0em" dy="0.95em" style="text-anchor: middle; visibility: inherit; font-family: Roboto, sans-serif; font-size: 12px; font-weight: 200;" fill="rgb(50, 49, 63)" stroke="none" stroke-width="1px">50</text><text x="1446" y="0" dx="0em" dy="0.95em" style="text-anchor: middle; visibility: hidden; font-family: Roboto, sans-serif; font-size: 12px; font-weight: 200;" fill="rgb(50, 49, 63)" stroke="none" stroke-width="1px">55</text></g><line x1="0" y1="0" x2="1446" y2="0" fill="rgb(0, 0, 0)" stroke="rgb(204, 204, 204)" stroke-width="1px"></line></g></g></g></g></svg>