<svg viewBox="0 0 1496 400" xmlns="http://www.w3.org/2000/svg"><g><g><g><g><g><line x1="72.34375" y1="378" x2="67.34375" y2="378" style="visibility: inherit;" fill="rgb(0, 0, 0)" stroke="rgb(204, 204, 204)" stroke-width="1px"></line><line x1="72.34375" y1="348.92307692307696" x2="67.34375" y2="348.92307692307696" style="visibility: inherit;" fill="rgb(0, 0, 0)" stroke="rgb(204, 204, 204)" stroke-width="1px"></line><line x1="72.34375" y1="319.84615384615387" x2="67.34375" y2="319.84615384615387" style="visibility: inherit;" fill="rgb(0, 0, 0)" stroke="rgb(204, 204, 204)" stroke-width="1px"></line><line x1="72.34375" y1="290.7692307692307" x2="67.34375" y2="290.7692307692307" style="visibility: inherit;" fill="rgb(0, 0, 0)" stroke="rgb(204, 204, 204)" stroke-width="1px"></line><line x1="72.34375" y1="261.6923076923077" x2="67.34375" y2="261.6923076923077" style="visibility: inherit;" fill="rgb(0, 0, 0)" stroke="rgb(204, 204, 204)" stroke-width="1px"></line><line x1="72.34375" y1="232.61538461538464" x2="67.34375" y2="232.61538461538464" style="visibility: inherit;" fill="rgb(0, 0, 0)" stroke="rgb(204, 204, 204)" stroke-width="1px"></line><line x1="72.34375" y1="203.5384615384615" x2="67.34375" y2="203.5384615384615" style="visibility: inherit;" fill="rgb(0, 0, 0)" stroke="rgb(204, 204, 204)" stroke-width="1px"></line><line x1="72.34375" y1="174.46153846153848" x2="67.34375" y2="174.46153846153848" style="visibility: inherit;" fill="rgb(0, 0, 0)" stroke="rgb(204, 204, 204)" stroke-width="1px"></line><line x1="72.34375" y1="145.38461538461536" x2="67.34375" y2="145.38461538461536" style="visibility: inherit;" fill="rgb(0, 0, 0)" stroke="rgb(204, 204, 204)" stroke-width="1px"></line><line x1="72.34375" y1="116.30769230769228" x2="67.34375" y2="116.30769230769228" style="visibility: inherit;" fill="rgb(0, 0, 0)" stroke="rgb(204, 204, 204)" stroke-width="1px"></line><line x1="72.34375" y1="87.23076923076921" x2="67.34375" y2="87.23076923076921" style="visibility: inherit;" fill="rgb(0, 0, 0)" stroke="rgb(204, 204, 204)" stroke-width="1px"></line><line x1="72.34375" y1="58.15384615384612" x2="67.34375" y2="58.15384615384612" style="visibility: inherit;" fill="rgb(0, 0, 0)" stroke="rgb(204, 204, 204)" stroke-width="1px"></line><line x1="72.34375" y1="29.076923076923016" x2="67.34375" y2="29.076923076923016" style="visibility: inherit;" fill="rgb(0, 0, 0)" stroke="rgb(204, 204, 204)" stroke-width="1px"></line></g><g transform="translate(62.34375, 0)"><text x="0" y="378" dx="0em" dy="0.3em" style="text-anchor: end; visibility: hidden; font-family: Roboto, sans-serif; font-size: 12px; font-weight: 200;" fill="rgb(50, 49, 63)" stroke="none" stroke-width="1px">-1e-4</text><text x="0" y="348.92307692307696" dx="0em" dy="0.3em" style="text-anchor: end; visibility: inherit; font-family: Roboto, sans-serif; font-size: 12px; font-weight: 200;" fill="rgb(50, 49, 63)" stroke="none" stroke-width="1px">0</text><text x="0" y="319.84615384615387" dx="0em" dy="0.3em" style="text-anchor: end; visibility: inherit; font-family: Roboto, sans-serif; font-size: 12px; font-weight: 200;" fill="rgb(50, 49, 63)" stroke="none" stroke-width="1px">1e-4</text><text x="0" y="290.7692307692307" dx="0em" dy="0.3em" style="text-anchor: end; visibility: inherit; font-family: Roboto, sans-serif; font-size: 12px; font-weight: 200;" fill="rgb(50, 49, 63)" stroke="none" stroke-width="1px">2e-4</text><text x="0" y="261.6923076923077" dx="0em" dy="0.3em" style="text-anchor: end; visibility: inherit; font-family: Roboto, sans-serif; font-size: 12px; font-weight: 200;" fill="rgb(50, 49, 63)" stroke="none" stroke-width="1px">3e-4</text><text x="0" y="232.61538461538464" dx="0em" dy="0.3em" style="text-anchor: end; visibility: inherit; font-family: Roboto, sans-serif; font-size: 12px; font-weight: 200;" fill="rgb(50, 49, 63)" stroke="none" stroke-width="1px">4e-4</text><text x="0" y="203.5384615384615" dx="0em" dy="0.3em" style="text-anchor: end; visibility: inherit; font-family: Roboto, sans-serif; font-size: 12px; font-weight: 200;" fill="rgb(50, 49, 63)" stroke="none" stroke-width="1px">5e-4</text><text x="0" y="174.46153846153848" dx="0em" dy="0.3em" style="text-anchor: end; visibility: inherit; font-family: Roboto, sans-serif; font-size: 12px; font-weight: 200;" fill="rgb(50, 49, 63)" stroke="none" stroke-width="1px">6e-4</text><text x="0" y="145.38461538461536" dx="0em" dy="0.3em" style="text-anchor: end; visibility: inherit; font-family: Roboto, sans-serif; font-size: 12px; font-weight: 200;" fill="rgb(50, 49, 63)" stroke="none" stroke-width="1px">7e-4</text><text x="0" y="116.30769230769228" dx="0em" dy="0.3em" style="text-anchor: end; visibility: inherit; font-family: Roboto, sans-serif; font-size: 12px; font-weight: 200;" fill="rgb(50, 49, 63)" stroke="none" stroke-width="1px">8e-4</text><text x="0" y="87.23076923076921" dx="0em" dy="0.3em" style="text-anchor: end; visibility: inherit; font-family: Roboto, sans-serif; font-size: 12px; font-weight: 200;" fill="rgb(50, 49, 63)" stroke="none" stroke-width="1px">9e-4</text><text x="0" y="58.15384615384612" dx="0em" dy="0.3em" style="text-anchor: end; visibility: inherit; font-family: Roboto, sans-serif; font-size: 12px; font-weight: 200;" fill="rgb(50, 49, 63)" stroke="none" stroke-width="1px">1e-3</text><text x="0" y="29.076923076923016" dx="0em" dy="0.3em" style="text-anchor: end; visibility: inherit; font-family: Roboto, sans-serif; font-size: 12px; font-weight: 200;" fill="rgb(50, 49, 63)" stroke="none" stroke-width="1px">1.1e-3</text></g><line x1="72.34375" y1="0" x2="72.34375" y2="378" fill="rgb(0, 0, 0)" stroke="rgb(204, 204, 204)" stroke-width="1px"></line></g></g><g transform="translate(72, 0)" clip-path="url(#clip_0)"><clipPath id="clip_0"><rect width="1423" height="378"></rect></clipPath><g><g><g><line x1="0" y1="0" x2="0" y2="378" fill="rgb(0, 0, 0)" stroke="rgb(60, 60, 60)" stroke-width="1px" opacity="0.25"></line><line x1="118.63802083333333" y1="0" x2="118.63802083333333" y2="378" fill="rgb(0, 0, 0)" stroke="rgb(60, 60, 60)" stroke-width="1px" opacity="0.25"></line><line x1="237.27604166666666" y1="0" x2="237.27604166666666" y2="378" fill="rgb(0, 0, 0)" stroke="rgb(60, 60, 60)" stroke-width="1px" opacity="0.25"></line><line x1="355.9140625" y1="0" x2="355.9140625" y2="378" fill="rgb(0, 0, 0)" stroke="rgb(60, 60, 60)" stroke-width="1px" opacity="0.25"></line><line x1="474.5520833333333" y1="0" x2="474.5520833333333" y2="378" fill="rgb(0, 0, 0)" stroke="rgb(60, 60, 60)" stroke-width="1px" opacity="0.25"></line><line x1="593.1901041666667" y1="0" x2="593.1901041666667" y2="378" fill="rgb(0, 0, 0)" stroke="rgb(60, 60, 60)" stroke-width="1px" opacity="0.25"></line><line x1="711.828125" y1="0" x2="711.828125" y2="378" fill="rgb(0, 0, 0)" stroke="rgb(60, 60, 60)" stroke-width="1px" opacity="0.25"></line><line x1="830.4661458333334" y1="0" x2="830.4661458333334" y2="378" fill="rgb(0, 0, 0)" stroke="rgb(60, 60, 60)" stroke-width="1px" opacity="0.25"></line><line x1="949.1041666666666" y1="0" x2="949.1041666666666" y2="378" fill="rgb(0, 0, 0)" stroke="rgb(60, 60, 60)" stroke-width="1px" opacity="0.25"></line><line x1="1067.7421875" y1="0" x2="1067.7421875" y2="378" fill="rgb(0, 0, 0)" stroke="rgb(60, 60, 60)" stroke-width="1px" opacity="0.25"></line><line x1="1186.3802083333335" y1="0" x2="1186.3802083333335" y2="378" fill="rgb(0, 0, 0)" stroke="rgb(60, 60, 60)" stroke-width="1px" opacity="0.25"></line><line x1="1305.0182291666665" y1="0" x2="1305.0182291666665" y2="378" fill="rgb(0, 0, 0)" stroke="rgb(60, 60, 60)" stroke-width="1px" opacity="0.25"></line><line x1="1423.65625" y1="0" x2="1423.65625" y2="378" fill="rgb(0, 0, 0)" stroke="rgb(60, 60, 60)" stroke-width="1px" opacity="0.25"></line></g><g><line x1="0" y1="378" x2="1423.65625" y2="378" fill="rgb(0, 0, 0)" stroke="rgb(60, 60, 60)" stroke-width="1px" opacity="0.25"></line><line x1="0" y1="348.92307692307696" x2="1423.65625" y2="348.92307692307696" fill="rgb(0, 0, 0)" stroke="rgb(60, 60, 60)" stroke-width="1px" opacity="0.25"></line><line x1="0" y1="319.84615384615387" x2="1423.65625" y2="319.84615384615387" fill="rgb(0, 0, 0)" stroke="rgb(60, 60, 60)" stroke-width="1px" opacity="0.25"></line><line x1="0" y1="290.7692307692307" x2="1423.65625" y2="290.7692307692307" fill="rgb(0, 0, 0)" stroke="rgb(60, 60, 60)" stroke-width="1px" opacity="0.25"></line><line x1="0" y1="261.6923076923077" x2="1423.65625" y2="261.6923076923077" fill="rgb(0, 0, 0)" stroke="rgb(60, 60, 60)" stroke-width="1px" opacity="0.25"></line><line x1="0" y1="232.61538461538464" x2="1423.65625" y2="232.61538461538464" fill="rgb(0, 0, 0)" stroke="rgb(60, 60, 60)" stroke-width="1px" opacity="0.25"></line><line x1="0" y1="203.5384615384615" x2="1423.65625" y2="203.5384615384615" fill="rgb(0, 0, 0)" stroke="rgb(60, 60, 60)" stroke-width="1px" opacity="0.25"></line><line x1="0" y1="174.46153846153848" x2="1423.65625" y2="174.46153846153848" fill="rgb(0, 0, 0)" stroke="rgb(60, 60, 60)" stroke-width="1px" opacity="0.25"></line><line x1="0" y1="145.38461538461536" x2="1423.65625" y2="145.38461538461536" fill="rgb(0, 0, 0)" stroke="rgb(60, 60, 60)" stroke-width="1px" opacity="0.25"></line><line x1="0" y1="116.30769230769228" x2="1423.65625" y2="116.30769230769228" fill="rgb(0, 0, 0)" stroke="rgb(60, 60, 60)" stroke-width="1px" opacity="0.25"></line><line x1="0" y1="87.23076923076921" x2="1423.65625" y2="87.23076923076921" fill="rgb(0, 0, 0)" stroke="rgb(60, 60, 60)" stroke-width="1px" opacity="0.25"></line><line x1="0" y1="58.15384615384612" x2="1423.65625" y2="58.15384615384612" fill="rgb(0, 0, 0)" stroke="rgb(60, 60, 60)" stroke-width="1px" opacity="0.25"></line><line x1="0" y1="29.076923076923016" x2="1423.65625" y2="29.076923076923016" fill="rgb(0, 0, 0)" stroke="rgb(60, 60, 60)" stroke-width="1px" opacity="0.25"></line></g></g></g><g><g><line x1="0" y1="348.92307692307696" x2="1423.65625" y2="348.92307692307696" fill="rgb(0, 0, 0)" stroke="rgb(153, 153, 153)" stroke-width="1.5px"></line></g></g><g><g><line x1="118.63802083333333" y1="0" x2="118.63802083333333" y2="378" fill="rgb(0, 0, 0)" stroke="rgb(153, 153, 153)" stroke-width="1.5px"></line></g></g><g><g><g><g><g><path stroke="rgb(0, 153, 136)" stroke-width="2px" d="M118.63802083333333,58.15383234304876L142.365625,58.44074488861055L166.09322916666667,59.300263925527126L189.82083333333333,60.72900445444078L213.5484375,62.7213812264112L237.27604166666666,65.26947334294134L261.00364583333334,68.36326120593223L284.73125,71.9905249677025L308.4588541666667,76.13694608096891L332.18645833333335,80.78617499883356L355.9140625,85.91983117478395L379.64166666666665,91.51768923765763L403.3692708333333,97.55764514164852L427.096875,104.01585156628143L450.82447916666666,110.86681946639256L474.5520833333333,118.08353654710719L498.27968749999997,125.63748418883632L522.0072916666667,133.49889132222876L545.7348958333333,141.6367005781772L569.4625,150.01882216277028L593.1901041666667,158.61215078228938L616.9177083333334,167.38278566816675L640.6453125,176.29609827697274L664.3729166666667,185.31693539037727L688.1005208333333,194.40968681513687L711.828125,203.5384546330628L735.5557291666668,212.66723937598556L759.2833333333333,221.7599823382468L783.0109375000001,230.7808194516513L806.7385416666666,239.69414898545412L830.4661458333334,248.46477540883305L854.19375,257.0581040283522L877.9213541666667,265.4402171504469L901.6489583333333,273.5780348688937L925.3765625,281.43943353978773L949.1041666666666,288.99339387526453L972.8317708333334,296.21010249348075L996.5593749999999,303.0610788560902L1020.2869791666667,309.5192852807231L1044.0145833333333,315.55923272221565L1067.7421875,321.1570865538401L1091.4697916666667,326.2907511922889L1115.1973958333333,330.93997164765517L1138.925,335.0863948765462L1162.6526041666666,338.7136586383164L1186.3802083333335,341.8074475591196L1210.1078125,344.35555184049116L1233.8354166666668,346.34791565426093L1257.5630208333332,347.77667575270215L1281.290625,348.63619359957994" style="fill: none;" fill="none"></path></g><g><path stroke="rgb(0, 119, 187)" stroke-width="2px" d="M118.63802083333333,58.15383234304876L142.365625,65.26947334294134L166.09322916666667,85.91983117478395L189.82083333333333,118.08353654710719L213.5484375,158.61215078228938L237.27604166666666,203.5384546330628L261.00364583333334,248.46477540883305L284.73125,288.99339387526453L308.4588541666667,321.1570865538401L332.18645833333335,341.8074475591196L355.9140625,348.92307692307696L355.9140625,348.92307692307696L355.9140625,348.92307692307696L355.9140625,348.92307692307696L355.9140625,348.92307692307696L355.9140625,348.92307692307696L355.9140625,348.92307692307696L355.9140625,348.92307692307696L355.9140625,348.92307692307696L355.9140625,348.92307692307696L355.9140625,348.92307692307696L355.9140625,348.92307692307696L355.9140625,348.92307692307696L355.9140625,348.92307692307696L355.9140625,348.92307692307696L355.9140625,348.92307692307696L355.9140625,348.92307692307696L355.9140625,348.92307692307696L355.9140625,348.92307692307696L355.9140625,348.92307692307696L355.9140625,348.92307692307696L355.9140625,348.92307692307696L355.9140625,348.92307692307696L355.9140625,348.92307692307696L355.9140625,348.92307692307696L355.9140625,348.92307692307696L355.9140625,348.92307692307696L355.9140625,348.92307692307696L355.9140625,348.92307692307696L355.9140625,348.92307692307696L355.9140625,348.92307692307696L355.9140625,348.92307692307696L355.9140625,348.92307692307696L355.9140625,348.92307692307696L355.9140625,348.92307692307696L355.9140625,348.92307692307696L355.9140625,348.92307692307696L355.9140625,348.92307692307696L355.9140625,348.92307692307696L355.9140625,348.92307692307696" style="fill: none;" fill="none"></path></g><g><path stroke="rgb(204, 51, 17)" stroke-width="2px" d="M118.63802083333333,58.15383234304876L142.365625,58.154577042907434L166.09322916666667,58.156709592502814L189.82083333333333,58.16029769182201L213.5484375,58.16534134086506L237.27604166666666,58.17177283964474L261.00364583333334,58.179659888148265L284.73125,58.18900248637565L308.4588541666667,58.199766784333235L332.18645833333335,58.2119527820211L355.9140625,58.22559432943278L379.64166666666665,58.240657576574705L403.3692708333333,58.257142523446866L427.096875,58.27508302004288L450.82447916666666,58.294445216369134L474.5520833333333,58.315229112425634L498.27968749999997,58.337468558205984L522.0072916666667,58.36112970371657L545.7348958333333,58.38624639895098L569.4625,58.41275094392205L593.1901041666667,58.44074488861055L616.9177083333334,58.47012668303568L640.6453125,58.50096402718466L664.3729166666667,58.53322307106392L688.1005208333333,58.56690381467338L711.828125,58.60200625801313L735.5557291666668,58.63856425107668L759.2833333333333,58.67654394387048L783.0109375000001,58.715945336394554L806.7385416666666,58.756802278642446L830.4661458333334,58.79908092062058L854.19375,58.842781262328955L877.9213541666667,58.88790330376761L901.6489583333333,58.9344470449365L925.3765625,58.98241248583563L949.1041666666666,59.03183347645858L972.8317708333334,59.08267616681177L996.5593749999999,59.13490670690167L1020.2869791666667,59.188592796715376L1044.0145833333333,59.24370058625932L1067.7421875,59.300263925527126L1091.4697916666667,59.358215114531596L1115.1973958333333,59.41758800326627L1138.925,59.47838259173126L1162.6526041666666,59.54059887992645L1186.3802083333335,59.604236867851924L1210.1078125,59.669330405501206L1233.8354166666668,59.73581179288716L1257.5630208333332,59.803714880003355" style="fill: none;" fill="none"></path></g></g></g></g></g></g><g transform="translate(72, 378)" clip-path="url(#clip_1)"><clipPath id="clip_1"><rect width="1423" height="22"></rect></clipPath><g><g><line x1="0" y1="0" x2="0" y2="5" style="visibility: inherit;" fill="rgb(0, 0, 0)" stroke="rgb(204, 204, 204)" stroke-width="1px"></line><line x1="118.63802083333333" y1="0" x2="118.63802083333333" y2="5" style="visibility: inherit;" fill="rgb(0, 0, 0)" stroke="rgb(204, 204, 204)" stroke-width="1px"></line><line x1="237.27604166666666" y1="0" x2="237.27604166666666" y2="5" style="visibility: inherit;" fill="rgb(0, 0, 0)" stroke="rgb(204, 204, 204)" stroke-width="1px"></line><line x1="355.9140625" y1="0" x2="355.9140625" y2="5" style="visibility: inherit;" fill="rgb(0, 0, 0)" stroke="rgb(204, 204, 204)" stroke-width="1px"></line><line x1="474.5520833333333" y1="0" x2="474.5520833333333" y2="5" style="visibility: inherit;" fill="rgb(0, 0, 0)" stroke="rgb(204, 204, 204)" stroke-width="1px"></line><line x1="593.1901041666667" y1="0" x2="593.1901041666667" y2="5" style="visibility: inherit;" fill="rgb(0, 0, 0)" stroke="rgb(204, 204, 204)" stroke-width="1px"></line><line x1="711.828125" y1="0" x2="711.828125" y2="5" style="visibility: inherit;" fill="rgb(0, 0, 0)" stroke="rgb(204, 204, 204)" stroke-width="1px"></line><line x1="830.4661458333334" y1="0" x2="830.4661458333334" y2="5" style="visibility: inherit;" fill="rgb(0, 0, 0)" stroke="rgb(204, 204, 204)" stroke-width="1px"></line><line x1="949.1041666666666" y1="0" x2="949.1041666666666" y2="5" style="visibility: inherit;" fill="rgb(0, 0, 0)" stroke="rgb(204, 204, 204)" stroke-width="1px"></line><line x1="1067.7421875" y1="0" x2="1067.7421875" y2="5" style="visibility: inherit;" fill="rgb(0, 0, 0)" stroke="rgb(204, 204, 204)" stroke-width="1px"></line><line x1="1186.3802083333335" y1="0" x2="1186.3802083333335" y2="5" style="visibility: inherit;" fill="rgb(0, 0, 0)" stroke="rgb(204, 204, 204)" stroke-width="1px"></line><line x1="1305.0182291666665" y1="0" x2="1305.0182291666665" y2="5" style="visibility: inherit;" fill="rgb(0, 0, 0)" stroke="rgb(204, 204, 204)" stroke-width="1px"></line><line x1="1423.65625" y1="0" x2="1423.65625" y2="5" style="visibility: inherit;" fill="rgb(0, 0, 0)" stroke="rgb(204, 204, 204)" stroke-width="1px"></line></g><g transform="translate(0, 8)"><text x="0" y="0" dx="0em" dy="0.95em" style="text-anchor: middle; visibility: hidden; font-family: Roboto, sans-serif; font-size: 12px; font-weight: 200;" fill="rgb(50, 49, 63)" stroke="none" stroke-width="1px">-5</text><text x="118.63802083333333" y="0" dx="0em" dy="0.95em" style="text-anchor: middle; visibility: inherit; font-family: Roboto, sans-serif; font-size: 12px; font-weight: 200;" fill="rgb(50, 49, 63)" stroke="none" stroke-width="1px">0</text><text x="237.27604166666666" y="0" dx="0em" dy="0.95em" style="text-anchor: middle; visibility: inherit; font-family: Roboto, sans-serif; font-size: 12px; font-weight: 200;" fill="rgb(50, 49, 63)" stroke="none" stroke-width="1px">5</text><text x="355.9140625" y="0" dx="0em" dy="0.95em" style="text-anchor: middle; visibility: inherit; font-family: Roboto, sans-serif; font-size: 12px; font-weight: 200;" fill="rgb(50, 49, 63)" stroke="none" stroke-width="1px">10</text><text x="474.5520833333333" y="0" dx="0em" dy="0.95em" style="text-anchor: middle; visibility: inherit; font-family: Roboto, sans-serif; font-size: 12px; font-weight: 200;" fill="rgb(50, 49, 63)" stroke="none" stroke-width="1px">15</text><text x="593.1901041666667" y="0" dx="0em" dy="0.95em" style="text-anchor: middle; visibility: inherit; font-family: Roboto, sans-serif; font-size: 12px; font-weight: 200;" fill="rgb(50, 49, 63)" stroke="none" stroke-width="1px">20</text><text x="711.828125" y="0" dx="0em" dy="0.95em" style="text-anchor: middle; visibility: inherit; font-family: Roboto, sans-serif; font-size: 12px; font-weight: 200;" fill="rgb(50, 49, 63)" stroke="none" stroke-width="1px">25</text><text x="830.4661458333334" y="0" dx="0em" dy="0.95em" style="text-anchor: middle; visibility: inherit; font-family: Roboto, sans-serif; font-size: 12px; font-weight: 200;" fill="rgb(50, 49, 63)" stroke="none" stroke-width="1px">30</text><text x="949.1041666666666" y="0" dx="0em" dy="0.95em" style="text-anchor: middle; visibility: inherit; font-family: Roboto, sans-serif; font-size: 12px; font-weight: 200;" fill="rgb(50, 49, 63)" stroke="none" stroke-width="1px">35</text><text x="1067.7421875" y="0" dx="0em" dy="0.95em" style="text-anchor: middle; visibility: inherit; font-family: Roboto, sans-serif; font-size: 12px; font-weight: 200;" fill="rgb(50, 49, 63)" stroke="none" stroke-width="1px">40</text><text x="1186.3802083333335" y="0" dx="0em" dy="0.95em" style="text-anchor: middle; visibility: inherit; font-family: Roboto, sans-serif; font-size: 12px; font-weight: 200;" fill="rgb(50, 49, 63)" stroke="none" stroke-width="1px">45</text><text x="1305.0182291666665" y="0" dx="0em" dy="0.95em" style="text-anchor: middle; visibility: inherit; font-family: Roboto, sans-serif; font-size: 12px; font-weight: 200;" fill="rgb(50, 49, 63)" stroke="none" stroke-width="1px">50</text><text x="1423.65625" y="0" dx="0em" dy="0.95em" style="text-anchor: middle; visibility: hidden; font-family: Roboto, sans-serif; font-size: 12px; font-weight: 200;" fill="rgb(50, 49, 63)" stroke="none" stroke-width="1px">55</text></g><line x1="0" y1="0" x2="1423.65625" y2="0" fill="rgb(0, 0, 0)" stroke="rgb(204, 204, 204)" stroke-width="1px"></line></g></g></g></g></svg>