<svg viewBox="0 0 1496 400" xmlns="http://www.w3.org/2000/svg"><g><g><g><g><g><line x1="51.5625" y1="378" x2="46.5625" y2="378" style="visibility: inherit;" fill="rgb(0, 0, 0)" stroke="rgb(204, 204, 204)" stroke-width="1px"></line><line x1="51.5625" y1="340.2" x2="46.5625" y2="340.2" style="visibility: inherit;" fill="rgb(0, 0, 0)" stroke="rgb(204, 204, 204)" stroke-width="1px"></line><line x1="51.5625" y1="302.3999999999999" x2="46.5625" y2="302.3999999999999" style="visibility: inherit;" fill="rgb(0, 0, 0)" stroke="rgb(204, 204, 204)" stroke-width="1px"></line><line x1="51.5625" y1="264.5999999999999" x2="46.5625" y2="264.5999999999999" style="visibility: inherit;" fill="rgb(0, 0, 0)" stroke="rgb(204, 204, 204)" stroke-width="1px"></line><line x1="51.5625" y1="226.79999999999987" x2="46.5625" y2="226.79999999999987" style="visibility: inherit;" fill="rgb(0, 0, 0)" stroke="rgb(204, 204, 204)" stroke-width="1px"></line><line x1="51.5625" y1="189" x2="46.5625" y2="189" style="visibility: inherit;" fill="rgb(0, 0, 0)" stroke="rgb(204, 204, 204)" stroke-width="1px"></line><line x1="51.5625" y1="151.19999999999996" x2="46.5625" y2="151.19999999999996" style="visibility: inherit;" fill="rgb(0, 0, 0)" stroke="rgb(204, 204, 204)" stroke-width="1px"></line><line x1="51.5625" y1="113.39999999999993" x2="46.5625" y2="113.39999999999993" style="visibility: inherit;" fill="rgb(0, 0, 0)" stroke="rgb(204, 204, 204)" stroke-width="1px"></line><line x1="51.5625" y1="75.5999999999999" x2="46.5625" y2="75.5999999999999" style="visibility: inherit;" fill="rgb(0, 0, 0)" stroke="rgb(204, 204, 204)" stroke-width="1px"></line><line x1="51.5625" y1="37.79999999999987" x2="46.5625" y2="37.79999999999987" style="visibility: inherit;" fill="rgb(0, 0, 0)" stroke="rgb(204, 204, 204)" stroke-width="1px"></line><line x1="51.5625" y1="0" x2="46.5625" y2="0" style="visibility: inherit;" fill="rgb(0, 0, 0)" stroke="rgb(204, 204, 204)" stroke-width="1px"></line></g><g transform="translate(41.5625, 0)"><text x="0" y="378" dx="0em" dy="0.3em" style="text-anchor: end; visibility: hidden; font-family: Roboto, sans-serif; font-size: 12px; font-weight: 200;" fill="rgb(50, 49, 63)" stroke="none" stroke-width="1px">1.15</text><text x="0" y="340.2" dx="0em" dy="0.3em" style="text-anchor: end; visibility: inherit; font-family: Roboto, sans-serif; font-size: 12px; font-weight: 200;" fill="rgb(50, 49, 63)" stroke="none" stroke-width="1px">1.2</text><text x="0" y="302.3999999999999" dx="0em" dy="0.3em" style="text-anchor: end; visibility: inherit; font-family: Roboto, sans-serif; font-size: 12px; font-weight: 200;" fill="rgb(50, 49, 63)" stroke="none" stroke-width="1px">1.25</text><text x="0" y="264.5999999999999" dx="0em" dy="0.3em" style="text-anchor: end; visibility: inherit; font-family: Roboto, sans-serif; font-size: 12px; font-weight: 200;" fill="rgb(50, 49, 63)" stroke="none" stroke-width="1px">1.3</text><text x="0" y="226.79999999999987" dx="0em" dy="0.3em" style="text-anchor: end; visibility: inherit; font-family: Roboto, sans-serif; font-size: 12px; font-weight: 200;" fill="rgb(50, 49, 63)" stroke="none" stroke-width="1px">1.35</text><text x="0" y="189" dx="0em" dy="0.3em" style="text-anchor: end; visibility: inherit; font-family: Roboto, sans-serif; font-size: 12px; font-weight: 200;" fill="rgb(50, 49, 63)" stroke="none" stroke-width="1px">1.4</text><text x="0" y="151.19999999999996" dx="0em" dy="0.3em" style="text-anchor: end; visibility: inherit; font-family: Roboto, sans-serif; font-size: 12px; font-weight: 200;" fill="rgb(50, 49, 63)" stroke="none" stroke-width="1px">1.45</text><text x="0" y="113.39999999999993" dx="0em" dy="0.3em" style="text-anchor: end; visibility: inherit; font-family: Roboto, sans-serif; font-size: 12px; font-weight: 200;" fill="rgb(50, 49, 63)" stroke="none" stroke-width="1px">1.5</text><text x="0" y="75.5999999999999" dx="0em" dy="0.3em" style="text-anchor: end; visibility: inherit; font-family: Roboto, sans-serif; font-size: 12px; font-weight: 200;" fill="rgb(50, 49, 63)" stroke="none" stroke-width="1px">1.55</text><text x="0" y="37.79999999999987" dx="0em" dy="0.3em" style="text-anchor: end; visibility: inherit; font-family: Roboto, sans-serif; font-size: 12px; font-weight: 200;" fill="rgb(50, 49, 63)" stroke="none" stroke-width="1px">1.6</text><text x="0" y="0" dx="0em" dy="0.3em" style="text-anchor: end; visibility: hidden; font-family: Roboto, sans-serif; font-size: 12px; font-weight: 200;" fill="rgb(50, 49, 63)" stroke="none" stroke-width="1px">1.65</text></g><line x1="51.5625" y1="0" x2="51.5625" y2="378" fill="rgb(0, 0, 0)" stroke="rgb(204, 204, 204)" stroke-width="1px"></line></g></g><g transform="translate(51, 0)" clip-path="url(#clip_0)"><clipPath id="clip_0"><rect width="1444" height="378"></rect></clipPath><g><g><g><line x1="0" y1="0" x2="0" y2="378" fill="rgb(0, 0, 0)" stroke="rgb(60, 60, 60)" stroke-width="1px" opacity="0.25"></line><line x1="120.36979166666666" y1="0" x2="120.36979166666666" y2="378" fill="rgb(0, 0, 0)" stroke="rgb(60, 60, 60)" stroke-width="1px" opacity="0.25"></line><line x1="240.73958333333331" y1="0" x2="240.73958333333331" y2="378" fill="rgb(0, 0, 0)" stroke="rgb(60, 60, 60)" stroke-width="1px" opacity="0.25"></line><line x1="361.109375" y1="0" x2="361.109375" y2="378" fill="rgb(0, 0, 0)" stroke="rgb(60, 60, 60)" stroke-width="1px" opacity="0.25"></line><line x1="481.47916666666663" y1="0" x2="481.47916666666663" y2="378" fill="rgb(0, 0, 0)" stroke="rgb(60, 60, 60)" stroke-width="1px" opacity="0.25"></line><line x1="601.8489583333334" y1="0" x2="601.8489583333334" y2="378" fill="rgb(0, 0, 0)" stroke="rgb(60, 60, 60)" stroke-width="1px" opacity="0.25"></line><line x1="722.21875" y1="0" x2="722.21875" y2="378" fill="rgb(0, 0, 0)" stroke="rgb(60, 60, 60)" stroke-width="1px" opacity="0.25"></line><line x1="842.5885416666667" y1="0" x2="842.5885416666667" y2="378" fill="rgb(0, 0, 0)" stroke="rgb(60, 60, 60)" stroke-width="1px" opacity="0.25"></line><line x1="962.9583333333333" y1="0" x2="962.9583333333333" y2="378" fill="rgb(0, 0, 0)" stroke="rgb(60, 60, 60)" stroke-width="1px" opacity="0.25"></line><line x1="1083.328125" y1="0" x2="1083.328125" y2="378" fill="rgb(0, 0, 0)" stroke="rgb(60, 60, 60)" stroke-width="1px" opacity="0.25"></line><line x1="1203.6979166666667" y1="0" x2="1203.6979166666667" y2="378" fill="rgb(0, 0, 0)" stroke="rgb(60, 60, 60)" stroke-width="1px" opacity="0.25"></line><line x1="1324.0677083333333" y1="0" x2="1324.0677083333333" y2="378" fill="rgb(0, 0, 0)" stroke="rgb(60, 60, 60)" stroke-width="1px" opacity="0.25"></line><line x1="1444.4375" y1="0" x2="1444.4375" y2="378" fill="rgb(0, 0, 0)" stroke="rgb(60, 60, 60)" stroke-width="1px" opacity="0.25"></line></g><g><line x1="0" y1="378" x2="1444.4375" y2="378" fill="rgb(0, 0, 0)" stroke="rgb(60, 60, 60)" stroke-width="1px" opacity="0.25"></line><line x1="0" y1="340.2" x2="1444.4375" y2="340.2" fill="rgb(0, 0, 0)" stroke="rgb(60, 60, 60)" stroke-width="1px" opacity="0.25"></line><line x1="0" y1="302.3999999999999" x2="1444.4375" y2="302.3999999999999" fill="rgb(0, 0, 0)" stroke="rgb(60, 60, 60)" stroke-width="1px" opacity="0.25"></line><line x1="0" y1="264.5999999999999" x2="1444.4375" y2="264.5999999999999" fill="rgb(0, 0, 0)" stroke="rgb(60, 60, 60)" stroke-width="1px" opacity="0.25"></line><line x1="0" y1="226.79999999999987" x2="1444.4375" y2="226.79999999999987" fill="rgb(0, 0, 0)" stroke="rgb(60, 60, 60)" stroke-width="1px" opacity="0.25"></line><line x1="0" y1="189" x2="1444.4375" y2="189" fill="rgb(0, 0, 0)" stroke="rgb(60, 60, 60)" stroke-width="1px" opacity="0.25"></line><line x1="0" y1="151.19999999999996" x2="1444.4375" y2="151.19999999999996" fill="rgb(0, 0, 0)" stroke="rgb(60, 60, 60)" stroke-width="1px" opacity="0.25"></line><line x1="0" y1="113.39999999999993" x2="1444.4375" y2="113.39999999999993" fill="rgb(0, 0, 0)" stroke="rgb(60, 60, 60)" stroke-width="1px" opacity="0.25"></line><line x1="0" y1="75.5999999999999" x2="1444.4375" y2="75.5999999999999" fill="rgb(0, 0, 0)" stroke="rgb(60, 60, 60)" stroke-width="1px" opacity="0.25"></line><line x1="0" y1="37.79999999999987" x2="1444.4375" y2="37.79999999999987" fill="rgb(0, 0, 0)" stroke="rgb(60, 60, 60)" stroke-width="1px" opacity="0.25"></line><line x1="0" y1="0" x2="1444.4375" y2="0" fill="rgb(0, 0, 0)" stroke="rgb(60, 60, 60)" stroke-width="1px" opacity="0.25"></line></g></g></g><g><g><line x1="0" y1="1247.3999999999999" x2="1444.4375" y2="1247.3999999999999" fill="rgb(0, 0, 0)" stroke="rgb(153, 153, 153)" stroke-width="1.5px"></line></g></g><g><g><line x1="120.36979166666666" y1="0" x2="120.36979166666666" y2="378" fill="rgb(0, 0, 0)" stroke="rgb(153, 153, 153)" stroke-width="1.5px"></line></g></g><g><g><g><g><g><path stroke="rgb(0, 119, 187)" stroke-width="2px" d="M120.36979166666666,134.8736022949218L144.44375,230.06015338897697L168.51770833333333,268.0821784973144L192.59166666666667,289.48791875839225L216.665625,299.6498302459716L240.73958333333331,303.1044854164123L264.81354166666665,305.3197797775268L288.8875,306.3864664077758L312.9614583333333,304.41837730407707L337.03541666666666,301.6620792388915L361.109375,300.3243049621581L385.18333333333334,295.11677255630485L409.2572916666667,291.69906749725334L433.33125,288.3687809944152L457.4052083333333,281.5911392211913L481.47916666666663,275.77807559967033L505.55312499999997,271.9371565818786L529.6270833333333,265.53478374481193L553.7010416666667,261.15502395629875L577.775,254.5011199951171L601.8489583333334,251.43678417205803L625.9229166666667,245.45113649368278L649.996875,237.27930393218986L674.0708333333333,233.11574735641472L698.1447916666667,229.58809318542473L722.21875,223.2600711822509L746.2927083333334,218.0712841987609L770.3666666666667,213.5695890426635L794.4406250000001,206.80177059173576L818.5145833333333,199.96212472915641L842.5885416666667,196.5454110145568L866.6625,189.8984464645385L890.7364583333334,184.3392571449279L914.8104166666666,180.9250668525695L938.884375,175.59073247909538L962.9583333333333,173.35308780670158L987.0322916666667,167.09995737075798L1011.1062499999999,161.03337993621818L1035.1802083333334,157.05141963958732L1059.2541666666666,150.94645013809196L1083.328125,148.32019844055168L1107.4020833333334,140.4149474143981L1131.4760416666666,138.82960739135734L1155.55,133.54366865158073L1179.6239583333333,126.51629819869989L1203.6979166666667,123.45385494232171L1227.771875,118.58950796127313L1251.8458333333333,111.17280950546258L1275.9197916666667,111.22643222808831L1299.99375,105.02214803695672" style="fill: none;" fill="none"></path></g><g><path stroke="rgb(204, 51, 17)" stroke-width="2px" d="M120.36979166666666,164.9124206542968L144.44375,255.89747371673576L168.51770833333333,255.92559185028068L192.59166666666667,308.8120159149169L216.665625,259.99929656982414L240.73958333333331,283.8237370491027L264.81354166666665,302.1003436088561L288.8875,318.6159619331359L312.9614583333333,324.60395278930656L337.03541666666666,259.83626546859733L361.109375,255.6324242591857L385.18333333333334,257.7271350860595L409.2572916666667,258.2534488677978L433.33125,263.94710054397575L457.4052083333333,270.94031467437736L481.47916666666663,277.3443998336791L505.55312499999997,281.6821626663207L529.6270833333333,283.4983958244323L553.7010416666667,214.20431985855095L577.775,207.3663863182067L601.8489583333334,200.70635404586784L625.9229166666667,191.3778027534484L649.996875,180.08026113510124L674.0708333333333,179.09549560546867L698.1447916666667,177.48230781555168L722.21875,170.5420855522155L746.2927083333334,171.3711198806762L770.3666666666667,173.35236682891838L794.4406250000001,175.23655214309684L818.5145833333333,174.88795938491813L842.5885416666667,176.26016035079948L866.6625,179.47770395278923L890.7364583333334,180.96075525283806L914.8104166666666,183.19236173629753L938.884375,184.09079017639152L962.9583333333333,184.97065343856804L987.0322916666667,185.1936158180236L1011.1062499999999,115.01814451217645L1035.1802083333334,105.84018745422357L1059.2541666666666,95.68900051116937L1083.328125,83.29485168457025L1107.4020833333334,73.1096886634826L1131.4760416666666,67.72740926742547L1155.55,56.0824464797973L1179.6239583333333,50.2924541473388L1203.6979166666667,45.895751380920345L1227.771875,39.23860301971429L1251.8458333333333,36.64849033355706L1275.9197916666667,24.92016448974603L1299.99375,24.720543766021663" style="fill: none;" fill="none"></path></g><g><path stroke="rgb(187, 187, 187)" stroke-width="2px" d="M120.36979166666666,45.66702117919915L144.44375,171.45367183685295L168.51770833333333,200.38777198791496L192.59166666666667,260.3089565277099L216.665625,285.5274976730346L240.73958333333331,270.50015773773185L264.81354166666665,292.8848957061767L288.8875,306.93098487853996L312.9614583333333,318.04449691772453L337.03541666666666,325.05789842605583L361.109375,326.97515859603874L385.18333333333334,303.76643314361564L409.2572916666667,308.3039068222045L433.33125,308.86681022644035L457.4052083333333,310.23044958114616L481.47916666666663,310.9947761535644L505.55312499999997,313.5344203948974L529.6270833333333,315.6782478332519L553.7010416666667,318.1293920516967L577.775,319.38659706115715L601.8489583333334,320.3658651351928L625.9229166666667,321.1554259300231L649.996875,321.3648699760436L674.0708333333333,295.0104283332824L698.1447916666667,289.2421554565429L722.21875,286.2208980560302L746.2927083333334,282.31139602661125L770.3666666666667,277.53690090179435L794.4406250000001,272.4657234191894L818.5145833333333,272.07170906066887L842.5885416666667,269.41021957397453L866.6625,268.3410996437072L890.7364583333334,266.8612026214599L914.8104166666666,265.4321345329284L938.884375,264.7447723388671L962.9583333333333,262.79623975753776L987.0322916666667,263.471886062622L1011.1062499999999,263.5662440299987L1035.1802083333334,263.4773835182189L1059.2541666666666,263.8706768989562L1083.328125,264.1031021118163L1107.4020833333334,264.35904922485344L1131.4760416666666,264.4234866142272L1155.55,264.9242056846618L1179.6239583333333,265.05668535232536L1203.6979166666667,265.1086858749389L1227.771875,235.76056423187248L1251.8458333333333,228.02519359588615L1275.9197916666667,227.00978651046745L1299.99375,219.60786809921257" style="fill: none;" fill="none"></path></g></g></g></g></g></g><g transform="translate(51, 378)" clip-path="url(#clip_1)"><clipPath id="clip_1"><rect width="1444" height="22"></rect></clipPath><g><g><line x1="0" y1="0" x2="0" y2="5" style="visibility: inherit;" fill="rgb(0, 0, 0)" stroke="rgb(204, 204, 204)" stroke-width="1px"></line><line x1="120.36979166666666" y1="0" x2="120.36979166666666" y2="5" style="visibility: inherit;" fill="rgb(0, 0, 0)" stroke="rgb(204, 204, 204)" stroke-width="1px"></line><line x1="240.73958333333331" y1="0" x2="240.73958333333331" y2="5" style="visibility: inherit;" fill="rgb(0, 0, 0)" stroke="rgb(204, 204, 204)" stroke-width="1px"></line><line x1="361.109375" y1="0" x2="361.109375" y2="5" style="visibility: inherit;" fill="rgb(0, 0, 0)" stroke="rgb(204, 204, 204)" stroke-width="1px"></line><line x1="481.47916666666663" y1="0" x2="481.47916666666663" y2="5" style="visibility: inherit;" fill="rgb(0, 0, 0)" stroke="rgb(204, 204, 204)" stroke-width="1px"></line><line x1="601.8489583333334" y1="0" x2="601.8489583333334" y2="5" style="visibility: inherit;" fill="rgb(0, 0, 0)" stroke="rgb(204, 204, 204)" stroke-width="1px"></line><line x1="722.21875" y1="0" x2="722.21875" y2="5" style="visibility: inherit;" fill="rgb(0, 0, 0)" stroke="rgb(204, 204, 204)" stroke-width="1px"></line><line x1="842.5885416666667" y1="0" x2="842.5885416666667" y2="5" style="visibility: inherit;" fill="rgb(0, 0, 0)" stroke="rgb(204, 204, 204)" stroke-width="1px"></line><line x1="962.9583333333333" y1="0" x2="962.9583333333333" y2="5" style="visibility: inherit;" fill="rgb(0, 0, 0)" stroke="rgb(204, 204, 204)" stroke-width="1px"></line><line x1="1083.328125" y1="0" x2="1083.328125" y2="5" style="visibility: inherit;" fill="rgb(0, 0, 0)" stroke="rgb(204, 204, 204)" stroke-width="1px"></line><line x1="1203.6979166666667" y1="0" x2="1203.6979166666667" y2="5" style="visibility: inherit;" fill="rgb(0, 0, 0)" stroke="rgb(204, 204, 204)" stroke-width="1px"></line><line x1="1324.0677083333333" y1="0" x2="1324.0677083333333" y2="5" style="visibility: inherit;" fill="rgb(0, 0, 0)" stroke="rgb(204, 204, 204)" stroke-width="1px"></line><line x1="1444.4375" y1="0" x2="1444.4375" y2="5" style="visibility: inherit;" fill="rgb(0, 0, 0)" stroke="rgb(204, 204, 204)" stroke-width="1px"></line></g><g transform="translate(0, 8)"><text x="0" y="0" dx="0em" dy="0.95em" style="text-anchor: middle; visibility: hidden; font-family: Roboto, sans-serif; font-size: 12px; font-weight: 200;" fill="rgb(50, 49, 63)" stroke="none" stroke-width="1px">-5</text><text x="120.36979166666666" y="0" dx="0em" dy="0.95em" style="text-anchor: middle; visibility: inherit; font-family: Roboto, sans-serif; font-size: 12px; font-weight: 200;" fill="rgb(50, 49, 63)" stroke="none" stroke-width="1px">0</text><text x="240.73958333333331" y="0" dx="0em" dy="0.95em" style="text-anchor: middle; visibility: inherit; font-family: Roboto, sans-serif; font-size: 12px; font-weight: 200;" fill="rgb(50, 49, 63)" stroke="none" stroke-width="1px">5</text><text x="361.109375" y="0" dx="0em" dy="0.95em" style="text-anchor: middle; visibility: inherit; font-family: Roboto, sans-serif; font-size: 12px; font-weight: 200;" fill="rgb(50, 49, 63)" stroke="none" stroke-width="1px">10</text><text x="481.47916666666663" y="0" dx="0em" dy="0.95em" style="text-anchor: middle; visibility: inherit; font-family: Roboto, sans-serif; font-size: 12px; font-weight: 200;" fill="rgb(50, 49, 63)" stroke="none" stroke-width="1px">15</text><text x="601.8489583333334" y="0" dx="0em" dy="0.95em" style="text-anchor: middle; visibility: inherit; font-family: Roboto, sans-serif; font-size: 12px; font-weight: 200;" fill="rgb(50, 49, 63)" stroke="none" stroke-width="1px">20</text><text x="722.21875" y="0" dx="0em" dy="0.95em" style="text-anchor: middle; visibility: inherit; font-family: Roboto, sans-serif; font-size: 12px; font-weight: 200;" fill="rgb(50, 49, 63)" stroke="none" stroke-width="1px">25</text><text x="842.5885416666667" y="0" dx="0em" dy="0.95em" style="text-anchor: middle; visibility: inherit; font-family: Roboto, sans-serif; font-size: 12px; font-weight: 200;" fill="rgb(50, 49, 63)" stroke="none" stroke-width="1px">30</text><text x="962.9583333333333" y="0" dx="0em" dy="0.95em" style="text-anchor: middle; visibility: inherit; font-family: Roboto, sans-serif; font-size: 12px; font-weight: 200;" fill="rgb(50, 49, 63)" stroke="none" stroke-width="1px">35</text><text x="1083.328125" y="0" dx="0em" dy="0.95em" style="text-anchor: middle; visibility: inherit; font-family: Roboto, sans-serif; font-size: 12px; font-weight: 200;" fill="rgb(50, 49, 63)" stroke="none" stroke-width="1px">40</text><text x="1203.6979166666667" y="0" dx="0em" dy="0.95em" style="text-anchor: middle; visibility: inherit; font-family: Roboto, sans-serif; font-size: 12px; font-weight: 200;" fill="rgb(50, 49, 63)" stroke="none" stroke-width="1px">45</text><text x="1324.0677083333333" y="0" dx="0em" dy="0.95em" style="text-anchor: middle; visibility: inherit; font-family: Roboto, sans-serif; font-size: 12px; font-weight: 200;" fill="rgb(50, 49, 63)" stroke="none" stroke-width="1px">50</text><text x="1444.4375" y="0" dx="0em" dy="0.95em" style="text-anchor: middle; visibility: hidden; font-family: Roboto, sans-serif; font-size: 12px; font-weight: 200;" fill="rgb(50, 49, 63)" stroke="none" stroke-width="1px">55</text></g><line x1="0" y1="0" x2="1444.4375" y2="0" fill="rgb(0, 0, 0)" stroke="rgb(204, 204, 204)" stroke-width="1px"></line></g></g></g></g></svg>